ISO-10303-21;
HEADER;
FILE_DESCRIPTION (( 'STEP AP214' ),
    '1' );
FILE_NAME ('fixing part 2.STEP',
    '2026-07-20T12:15:48',
    ( '' ),
    ( '' ),
    'SwSTEP 2.0',
    'SolidWorks 2023',
    '' );
FILE_SCHEMA (( 'AUTOMOTIVE_DESIGN' ));
ENDSEC;

DATA;
#1 = CARTESIAN_POINT ( 'NONE',  ( 0.4909367919884951581, -12.05550560345247391, -2.293227766045322191 ) ) ;
#2 = ADVANCED_FACE ( 'NONE', ( #83 ), #570, .T. ) ;
#3 = ORIENTED_EDGE ( 'NONE', *, *, #302, .T. ) ;
#4 = CARTESIAN_POINT ( 'NONE',  ( 0.000000000000000000, 0.000000000000000000, -7.500000000000000000 ) ) ;
#5 = CARTESIAN_POINT ( 'NONE',  ( 0.2210010245266469664, -11.21514185898828231, -1.900076541310702360 ) ) ;
#6 = VECTOR ( 'NONE', #195, 1000.000000000000000 ) ;
#7 = VERTEX_POINT ( 'NONE', #327 ) ;
#8 = EDGE_CURVE ( 'NONE', #264, #431, #414, .T. ) ;
#9 = DIRECTION ( 'NONE',  ( 0.000000000000000000, 1.000000000000000000, 0.000000000000000000 ) ) ;
#10 = FACE_OUTER_BOUND ( 'NONE', #544, .T. ) ;
#11 = ORIENTED_EDGE ( 'NONE', *, *, #446, .F. ) ;
#12 = DIRECTION ( 'NONE',  ( 1.224646799147353207E-16, -1.000000000000000000, -0.000000000000000000 ) ) ;
#13 = CARTESIAN_POINT ( 'NONE',  ( 0.4915846160015812094, -9.943166291576259752, -2.294418296466250062 ) ) ;
#14 = ORIENTED_EDGE ( 'NONE', *, *, #423, .T. ) ;
#15 = DIRECTION ( 'NONE',  ( -0.000000000000000000, -0.000000000000000000, -1.000000000000000000 ) ) ;
#16 = AXIS2_PLACEMENT_3D ( 'NONE', #104, #594, #221 ) ;
#17 = ORIENTED_EDGE ( 'NONE', *, *, #521, .T. ) ;
#18 = CARTESIAN_POINT ( 'NONE',  ( 2.999999999999999112, -12.59999999999999964, -3.499999999999999556 ) ) ;
#19 = PLANE ( 'NONE',  #551 ) ;
#20 = EDGE_CURVE ( 'NONE', #455, #7, #21, .T. ) ;
#21 = LINE ( 'NONE', #271, #601 ) ;
#22 = ORIENTED_EDGE ( 'NONE', *, *, #661, .T. ) ;
#23 = DIRECTION ( 'NONE',  ( 0.000000000000000000, 1.000000000000000000, 0.000000000000000000 ) ) ;
#24 = DIRECTION ( 'NONE',  ( 0.000000000000000000, -1.000000000000000000, 0.000000000000000000 ) ) ;
#25 = DIRECTION ( 'NONE',  ( -9.912705577010326782E-17, 1.000000000000000000, -0.000000000000000000 ) ) ;
#26 = VERTEX_POINT ( 'NONE', #635 ) ;
#27 = DIRECTION ( 'NONE',  ( 0.000000000000000000, 1.000000000000000000, 0.000000000000000000 ) ) ;
#28 = CARTESIAN_POINT ( 'NONE',  ( 0.8000000000000002665, -12.59999999999999787, 3.499999999999999556 ) ) ;
#29 = CYLINDRICAL_SURFACE ( 'NONE', #502, 1.600000000000000755 ) ;
#30 = CIRCLE ( 'NONE', #143, 1.600000000000001865 ) ;
#31 = ORIENTED_EDGE ( 'NONE', *, *, #64, .T. ) ;
#32 = AXIS2_PLACEMENT_3D ( 'NONE', #276, #640, #339 ) ;
#33 = EDGE_CURVE ( 'NONE', #336, #7, #509, .T. ) ;
#34 =( NAMED_UNIT ( * ) SI_UNIT ( $, .STERADIAN. ) SOLID_ANGLE_UNIT ( ) );
#35 = CARTESIAN_POINT ( 'NONE',  ( 0.8000000000000003775, -9.399999999999998579, 3.499999999999999556 ) ) ;
#36 = B_SPLINE_CURVE_WITH_KNOTS ( 'NONE', 3,
 ( #254, #687, #148, #74, #257, #444, #394, #89, #210, #630, #316, #85, #562, #262, #461, #208, #458, #136, #82, #619, #268, #504, #196, #627, #511, #28 ),
 .UNSPECIFIED., .F., .F.,
 ( 4, 2, 2, 2, 2, 2, 2, 2, 2, 2, 2, 2, 4 ),
 ( 0.000000000000000000, 0.0003221249032728490088, 0.0006442498065456980175, 0.001288499613091392999, 0.001610624516364239731, 0.001932749419637086897, 0.002576999226182781228, 0.003221249032728475126, 0.003543373936001322291, 0.003865498839274169891, 0.004509748645819863788, 0.004831873549092711821, 0.005153998452365558987 ),
 .UNSPECIFIED. ) ;
#37 = ORIENTED_EDGE ( 'NONE', *, *, #457, .T. ) ;
#38 = VERTEX_POINT ( 'NONE', #631 ) ;
#39 = CARTESIAN_POINT ( 'NONE',  ( -3.000000000000000000, 2.499999999999999112, -1.899999999999997913 ) ) ;
#40 =( LENGTH_UNIT ( ) NAMED_UNIT ( * ) SI_UNIT ( .MILLI., .METRE. ) );
#41 = CARTESIAN_POINT ( 'NONE',  ( 0.4540761226590440680, -10.02229907529712172, -4.770609142592585172 ) ) ;
#42 = VERTEX_POINT ( 'NONE', #512 ) ;
#43 = CIRCLE ( 'NONE', #613, 1.600000000000000755 ) ;
#44 = CARTESIAN_POINT ( 'NONE',  ( 0.3827005762973162417, -11.80840771636873932, -4.884508953992655833 ) ) ;
#45 = CARTESIAN_POINT ( 'NONE',  ( 0.2896705069929997323, -10.47353349620550311, 5.014511235767987962 ) ) ;
#46 = ORIENTED_EDGE ( 'NONE', *, *, #259, .F. ) ;
#47 = CARTESIAN_POINT ( 'NONE',  ( 0.7456761603339129296, -12.51407028828463908, -4.027999993268571721 ) ) ;
#48 = FILL_AREA_STYLE ('',( #642 ) ) ;
#49 = ORIENTED_EDGE ( 'NONE', *, *, #338, .F. ) ;
#50 = CARTESIAN_POINT ( 'NONE',  ( 0.2609211727521086877, -10.56634046910600766, -5.053955433334030189 ) ) ;
#51 = CARTESIAN_POINT ( 'NONE',  ( 0.2647205300465529931, -10.57485442912138751, 5.046164958583496229 ) ) ;
#52 = ORIENTED_EDGE ( 'NONE', *, *, #590, .T. ) ;
#53 = VECTOR ( 'NONE', #348, 1000.000000000000000 ) ;
#54 = ADVANCED_FACE ( 'NONE', ( #745 ), #29, .F. ) ;
#55 = LINE ( 'NONE', #368, #350 ) ;
#56 = VECTOR ( 'NONE', #731, 1000.000000000000000 ) ;
#57 = CARTESIAN_POINT ( 'NONE',  ( 0.4538885684030881662, -10.02271636029741231, -2.229077341870496554 ) ) ;
#58 = ORIENTED_EDGE ( 'NONE', *, *, #671, .F. ) ;
#59 = LINE ( 'NONE', #607, #576 ) ;
#60 = CARTESIAN_POINT ( 'NONE',  ( 0.8000000000000003775, -12.59999999999999787, -3.499999999999999556 ) ) ;
#61 = ORIENTED_EDGE ( 'NONE', *, *, #470, .T. ) ;
#62 = FACE_OUTER_BOUND ( 'NONE', #255, .T. ) ;
#63 = CARTESIAN_POINT ( 'NONE',  ( 0.8000000000000007105, -9.400000000000000355, -3.391021788425961692 ) ) ;
#64 = EDGE_CURVE ( 'NONE', #654, #234, #90, .T. ) ;
#65 = ORIENTED_EDGE ( 'NONE', *, *, #193, .T. ) ;
#66 = DIRECTION ( 'NONE',  ( 1.000000000000000000, 4.818676322157798238E-17, 0.000000000000000000 ) ) ;
#67 = VECTOR ( 'NONE', #404, 1000.000000000000000 ) ;
#68 = DIRECTION ( 'NONE',  ( -0.000000000000000000, 1.000000000000000000, -0.000000000000000000 ) ) ;
#69 = ORIENTED_EDGE ( 'NONE', *, *, #561, .F. ) ;
#70 = DIRECTION ( 'NONE',  ( -0.000000000000000000, -1.000000000000000000, -0.000000000000000000 ) ) ;
#71 = CARTESIAN_POINT ( 'NONE',  ( 0.2600786649909158088, -11.43012153861317159, -1.944993218061389362 ) ) ;
#72 = ORIENTED_EDGE ( 'NONE', *, *, #139, .F. ) ;
#73 = CARTESIAN_POINT ( 'NONE',  ( -3.000000000000000000, -12.50000000000000000, 3.499999999999999556 ) ) ;
#74 = CARTESIAN_POINT ( 'NONE',  ( 0.7658750598948811383, -9.453774308721841990, 3.075060782060408560 ) ) ;
#75 = ORIENTED_EDGE ( 'NONE', *, *, #393, .F. ) ;
#76 = ADVANCED_FACE ( 'NONE', ( #149 ), #506, .F. ) ;
#77 = LINE ( 'NONE', #753, #426 ) ;
#78 = AXIS2_PLACEMENT_3D ( 'NONE', #290, #540, #525 ) ;
#79 = ORIENTED_EDGE ( 'NONE', *, *, #312, .T. ) ;
#80 = ORIENTED_EDGE ( 'NONE', *, *, #457, .F. ) ;
#81 = LINE ( 'NONE', #452, #297 ) ;
#82 = CARTESIAN_POINT ( 'NONE',  ( 0.4911398866818667552, -12.05594266918979862, 2.293566542347301951 ) ) ;
#83 = FACE_OUTER_BOUND ( 'NONE', #771, .T. ) ;
#84 = LINE ( 'NONE', #743, #6 ) ;
#85 = CARTESIAN_POINT ( 'NONE',  ( 0.2609211727521085211, -10.56634046910601299, 1.946044566665967812 ) ) ;
#86 = CARTESIAN_POINT ( 'NONE',  ( 0.000000000000000000, -15.00000000000000000, 7.500000000000000000 ) ) ;
#87 = ADVANCED_FACE ( 'NONE', ( #693, #331, #398 ), #523, .F. ) ;
#88 = DIRECTION ( 'NONE',  ( 1.000000000000000000, 4.818676322157798238E-17, 0.000000000000000000 ) ) ;
#89 = CARTESIAN_POINT ( 'NONE',  ( 0.4917425356525825797, -9.942846993792290533, 2.294715894089724983 ) ) ;
#90 = LINE ( 'NONE', #520, #588 ) ;
#91 = CIRCLE ( 'NONE', #539, 1.600000000000001643 ) ;
#92 = DIRECTION ( 'NONE',  ( -1.000000000000000000, -1.224646799147353454E-16, 0.000000000000000000 ) ) ;
#93 = CARTESIAN_POINT ( 'NONE',  ( -3.000000000000000000, 2.499999999999999112, -3.499999999999999556 ) ) ;
#94 = CARTESIAN_POINT ( 'NONE',  ( 2.999999999999999112, -11.00000000000000000, 3.499999999999999556 ) ) ;
#95 = CYLINDRICAL_SURFACE ( 'NONE', #267, 2.500000000000000444 ) ;
#96 = EDGE_LOOP ( 'NONE', ( #80, #664, #165, #317 ) ) ;
#97 = EDGE_CURVE ( 'NONE', #391, #676, #154, .T. ) ;
#98 = DIRECTION ( 'NONE',  ( -1.224646799147353207E-16, 1.000000000000000000, 0.000000000000000000 ) ) ;
#99 = CARTESIAN_POINT ( 'NONE',  ( -12.00000000000000000, -12.59999999999999964, -3.499999999999999556 ) ) ;
#100 = VERTEX_POINT ( 'NONE', #384 ) ;
#101 = VECTOR ( 'NONE', #569, 1000.000000000000000 ) ;
#102 = CARTESIAN_POINT ( 'NONE',  ( 0.000000000000000000, -15.00000000000000000, 1.666969722017662914 ) ) ;
#103 = PRODUCT_DEFINITION ( 'UNKNOWN', '', #129, #547 ) ;
#104 = CARTESIAN_POINT ( 'NONE',  ( -7.000000000000000000, -8.572527594031473190E-16, 7.500000000000000000 ) ) ;
#105 = EDGE_LOOP ( 'NONE', ( #422, #69, #407, #726 ) ) ;
#106 = DIRECTION ( 'NONE',  ( -0.000000000000000000, 1.000000000000000000, -0.000000000000000000 ) ) ;
#107 = CARTESIAN_POINT ( 'NONE',  ( 0.3483430588722889465, -11.71692630589683048, 4.934147596789334678 ) ) ;
#108 = ORIENTED_EDGE ( 'NONE', *, *, #326, .T. ) ;
#109 = ADVANCED_FACE ( 'NONE', ( #623 ), #353, .F. ) ;
#110 = CARTESIAN_POINT ( 'NONE',  ( 0.000000000000000000, 0.000000000000000000, 7.500000000000000000 ) ) ;
#111 = EDGE_LOOP ( 'NONE', ( #291, #315, #137, #79 ) ) ;
#112 = ADVANCED_FACE ( 'NONE', ( #225, #582 ), #95, .F. ) ;
#113 = AXIS2_PLACEMENT_3D ( 'NONE', #187, #550, #666 ) ;
#114 = DIRECTION ( 'NONE',  ( 0.000000000000000000, 1.000000000000000000, 0.000000000000000000 ) ) ;
#115 = CARTESIAN_POINT ( 'NONE',  ( 0.8000000000000008216, -12.60000000000000142, -3.285089858456859080 ) ) ;
#116 = ORIENTED_EDGE ( 'NONE', *, *, #399, .F. ) ;
#117 = MANIFOLD_SOLID_BREP ( 'Cut-Extrude3', #708 ) ;
#118 = LINE ( 'NONE', #110, #335 ) ;
#119 = EDGE_CURVE ( 'NONE', #699, #374, #413, .T. ) ;
#120 = CARTESIAN_POINT ( 'NONE',  ( 0.2303124956921134558, -10.78383264289812615, -1.911086374495833518 ) ) ;
#121 = ORIENTED_EDGE ( 'NONE', *, *, #182, .T. ) ;
#122 = CARTESIAN_POINT ( 'NONE',  ( -7.000000000000000000, 2.499999999999999112, 7.500000000000000000 ) ) ;
#123 = CARTESIAN_POINT ( 'NONE',  ( 0.7652289723294209978, -9.454801840031128890, 3.928836278437498386 ) ) ;
#124 = ORIENTED_EDGE ( 'NONE', *, *, #238, .T. ) ;
#125 = VECTOR ( 'NONE', #737, 1000.000000000000000 ) ;
#126 = DIRECTION ( 'NONE',  ( -0.000000000000000000, -0.000000000000000000, -1.000000000000000000 ) ) ;
#127 = AXIS2_PLACEMENT_3D ( 'NONE', #174, #545, #9 ) ;
#128 = CARTESIAN_POINT ( 'NONE',  ( 0.3827955365989593184, -10.19136869055831873, -2.115643427159056955 ) ) ;
#129 = PRODUCT_DEFINITION_FORMATION_WITH_SPECIFIED_SOURCE ( 'ANY', '', #454, .NOT_KNOWN. ) ;
#130 = ORIENTED_EDGE ( 'NONE', *, *, #530, .F. ) ;
#131 = CARTESIAN_POINT ( 'NONE',  ( 0.000000000000000000, 2.081899558550500526E-16, -1.666969722017662914 ) ) ;
#132 = CARTESIAN_POINT ( 'NONE',  ( 0.8000000000000003775, -12.59999999999999787, -3.499999999999999556 ) ) ;
#133 = ORIENTED_EDGE ( 'NONE', *, *, #408, .T. ) ;
#134 = ADVANCED_FACE ( 'NONE', ( #598 ), #586, .F. ) ;
#135 = DIRECTION ( 'NONE',  ( 1.000000000000000000, 1.224646799147353207E-16, -0.000000000000000000 ) ) ;
#136 = CARTESIAN_POINT ( 'NONE',  ( 0.4540017071533327120, -11.97755035665423406, 2.229258728231612086 ) ) ;
#137 = ORIENTED_EDGE ( 'NONE', *, *, #158, .T. ) ;
#138 = EDGE_LOOP ( 'NONE', ( #328, #610 ) ) ;
#139 = EDGE_CURVE ( 'NONE', #311, #730, #472, .T. ) ;
#140 = DIRECTION ( 'NONE',  ( -0.000000000000000000, 1.000000000000000000, -0.000000000000000000 ) ) ;
#141 = PLANE ( 'NONE',  #439 ) ;
#142 = VECTOR ( 'NONE', #15, 1000.000000000000000 ) ;
#143 = AXIS2_PLACEMENT_3D ( 'NONE', #358, #114, #364 ) ;
#144 = ORIENTED_EDGE ( 'NONE', *, *, #661, .F. ) ;
#145 = AXIS2_PLACEMENT_3D ( 'NONE', #447, #387, #629 ) ;
#146 = CARTESIAN_POINT ( 'NONE',  ( -3.000000000000000000, 2.499999999999999112, 5.100000000000001421 ) ) ;
#147 = EDGE_CURVE ( 'NONE', #469, #173, #701, .T. ) ;
#148 = CARTESIAN_POINT ( 'NONE',  ( 0.7928951595380159256, -9.411037963384556448, 3.284160074345305880 ) ) ;
#149 = FACE_OUTER_BOUND ( 'NONE', #96, .T. ) ;
#150 = CARTESIAN_POINT ( 'NONE',  ( -3.000000000000000000, 0.000000000000000000, -5.100000000000002309 ) ) ;
#151 = FACE_BOUND ( 'NONE', #188, .T. ) ;
#152 = EDGE_LOOP ( 'NONE', ( #72, #65, #124, #370 ) ) ;
#153 = CARTESIAN_POINT ( 'NONE',  ( -3.000000000000000000, -12.50000000000000000, 3.499999999999999556 ) ) ;
#154 = LINE ( 'NONE', #638, #125 ) ;
#155 = AXIS2_PLACEMENT_3D ( 'NONE', #754, #211, #403 ) ;
#156 = CARTESIAN_POINT ( 'NONE',  ( 0.8000000000000003775, -9.399999999999998579, -3.499999999999999556 ) ) ;
#157 = VERTEX_POINT ( 'NONE', #535 ) ;
#158 = EDGE_CURVE ( 'NONE', #361, #273, #650, .T. ) ;
#159 = CARTESIAN_POINT ( 'NONE',  ( 3.000000000000000000, -15.00000000000000000, 7.500000000000000000 ) ) ;
#160 = CARTESIAN_POINT ( 'NONE',  ( 0.6007642724083583907, -12.27242620489900204, 4.491209749417565789 ) ) ;
#161 = ORIENTED_EDGE ( 'NONE', *, *, #373, .F. ) ;
#162 = CARTESIAN_POINT ( 'NONE',  ( 0.6701970221818426277, -12.39001501809241645, -4.320139971291049541 ) ) ;
#163 = DIRECTION ( 'NONE',  ( -0.000000000000000000, -1.000000000000000000, -0.000000000000000000 ) ) ;
#164 = AXIS2_PLACEMENT_3D ( 'NONE', #153, #106, #709 ) ;
#165 = ORIENTED_EDGE ( 'NONE', *, *, #491, .T. ) ;
#166 = COLOUR_RGB ( '',0.7921568627450980005, 0.8196078431372548767, 0.9333333333333333481 ) ;
#167 = CIRCLE ( 'NONE', #145, 1.600000000000001643 ) ;
#168 = CARTESIAN_POINT ( 'NONE',  ( 4.336808689942017736E-16, -15.00000000000000000, 5.333030277982335754 ) ) ;
#169 = EDGE_CURVE ( 'NONE', #654, #361, #180, .T. ) ;
#170 = ORIENTED_EDGE ( 'NONE', *, *, #277, .F. ) ;
#171 = DIRECTION ( 'NONE',  ( 1.000000000000000000, 4.818676322157798854E-17, -0.000000000000000000 ) ) ;
#172 = CARTESIAN_POINT ( 'NONE',  ( 0.3827631753784098700, -11.80855524568022119, 4.884408571285256961 ) ) ;
#173 = VERTEX_POINT ( 'NONE', #243 ) ;
#174 = CARTESIAN_POINT ( 'NONE',  ( -12.00000000000000000, -11.00000000000000000, -3.499999999999999556 ) ) ;
#175 = CARTESIAN_POINT ( 'NONE',  ( 0.7926963291525718214, -9.411346967733505764, -3.281552179352160703 ) ) ;
#176 = ORIENTED_EDGE ( 'NONE', *, *, #201, .T. ) ;
#177 = AXIS2_PLACEMENT_3D ( 'NONE', #437, #669, #658 ) ;
#178 = DIRECTION ( 'NONE',  ( 0.000000000000000000, 1.000000000000000000, 0.000000000000000000 ) ) ;
#179 = CARTESIAN_POINT ( 'NONE',  ( 2.999999999999998224, 2.499999999999999112, 7.500000000000000000 ) ) ;
#180 = B_SPLINE_CURVE_WITH_KNOTS ( 'NONE', 3,
 ( #591, #767, #419, #468, #160, #764, #653, #172, #107, #698, #281, #529, #760, #51, #45, #481, #770, #230, #299, #558, #359, #663, #236, #484, #123, #372, #543, #487 ),
 .UNSPECIFIED., .F., .F.,
 ( 4, 2, 2, 2, 2, 2, 2, 2, 2, 2, 2, 2, 2, 4 ),
 ( 0.005153998452365558987, 0.005797518827629299931, 0.006441039202893040876, 0.006762799390524910914, 0.007084559578156780085, 0.007728079953420519295, 0.008049840141052387599, 0.008371600328684253300, 0.008693360516316120737, 0.009015120703947988173, 0.009336880891579853875, 0.009658641079211723046, 0.009980401266843588748, 0.01030216145447545445 ),
 .UNSPECIFIED. ) ;
#181 = ORIENTED_EDGE ( 'NONE', *, *, #287, .F. ) ;
#182 = EDGE_CURVE ( 'NONE', #26, #336, #616, .T. ) ;
#183 = CARTESIAN_POINT ( 'NONE',  ( 2.999999999999999112, -11.00000000000000000, -3.499999999999999556 ) ) ;
#184 = LINE ( 'NONE', #675, #451 ) ;
#185 = EDGE_LOOP ( 'NONE', ( #482, #466 ) ) ;
#186 = DIRECTION ( 'NONE',  ( -1.000000000000000000, -1.224646799147353207E-16, 1.734723475976806700E-15 ) ) ;
#187 = CARTESIAN_POINT ( 'NONE',  ( -1.700000000000000178, -15.00000000000000000, -3.499999999999999556 ) ) ;
#188 = EDGE_LOOP ( 'NONE', ( #660, #11 ) ) ;
#189 = VECTOR ( 'NONE', #346, 1000.000000000000000 ) ;
#190 = DIRECTION ( 'NONE',  ( -0.000000000000000000, 1.000000000000000000, -0.000000000000000000 ) ) ;
#191 = AXIS2_PLACEMENT_3D ( 'NONE', #483, #12, #186 ) ;
#192 = FACE_OUTER_BOUND ( 'NONE', #295, .T. ) ;
#193 = EDGE_CURVE ( 'NONE', #311, #563, #406, .T. ) ;
#194 = EDGE_LOOP ( 'NONE', ( #755, #489 ) ) ;
#195 = DIRECTION ( 'NONE',  ( -0.000000000000000000, 1.000000000000000000, -0.000000000000000000 ) ) ;
#196 = CARTESIAN_POINT ( 'NONE',  ( 0.7655481584505273718, -12.54570598748846066, 3.073054749507664773 ) ) ;
#197 = DIRECTION ( 'NONE',  ( 0.000000000000000000, 1.000000000000000000, 0.000000000000000000 ) ) ;
#198 = CARTESIAN_POINT ( 'NONE',  ( -3.000000000000000000, 2.499999999999999112, 1.899999999999997913 ) ) ;
#199 = FACE_OUTER_BOUND ( 'NONE', #435, .T. ) ;
#200 = VERTEX_POINT ( 'NONE', #732 ) ;
#201 = EDGE_CURVE ( 'NONE', #410, #676, #386, .T. ) ;
#202 = CARTESIAN_POINT ( 'NONE',  ( -3.000000000000000000, -12.50000000000000000, -5.100000000000001421 ) ) ;
#203 = CARTESIAN_POINT ( 'NONE',  ( -1.700000000000000178, -15.00000000000000000, 3.499999999999999556 ) ) ;
#204 = CIRCLE ( 'NONE', #647, 1.600000000000001643 ) ;
#205 = DIRECTION ( 'NONE',  ( 0.000000000000000000, 1.000000000000000000, 0.000000000000000000 ) ) ;
#206 =( GEOMETRIC_REPRESENTATION_CONTEXT ( 3 ) GLOBAL_UNCERTAINTY_ASSIGNED_CONTEXT ( ( #500 ) ) GLOBAL_UNIT_ASSIGNED_CONTEXT ( ( #560, #621, #34 ) ) REPRESENTATION_CONTEXT ( 'NONE', 'WORKASPACE' ) );
#207 = DIRECTION ( 'NONE',  ( -0.000000000000000000, -0.000000000000000000, -1.000000000000000000 ) ) ;
#208 = CARTESIAN_POINT ( 'NONE',  ( 0.3482985892471868739, -11.71682942051737975, 2.065785482640690951 ) ) ;
#209 = DIRECTION ( 'NONE',  ( 0.000000000000000000, 0.000000000000000000, 1.000000000000000000 ) ) ;
#210 = CARTESIAN_POINT ( 'NONE',  ( 0.4540761226590441790, -10.02229907529712172, 2.229390857407413939 ) ) ;
#211 = DIRECTION ( 'NONE',  ( -1.224646799147353207E-16, 1.000000000000000000, 0.000000000000000000 ) ) ;
#212 = ORIENTED_EDGE ( 'NONE', *, *, #719, .F. ) ;
#213 = CARTESIAN_POINT ( 'NONE',  ( 3.000000000000000000, -15.00000000000000000, 7.500000000000000000 ) ) ;
#214 = CARTESIAN_POINT ( 'NONE',  ( -1.700000000000000178, 7.071067811865478170, -3.499999999999999556 ) ) ;
#215 = AXIS2_PLACEMENT_3D ( 'NONE', #93, #197, #209 ) ;
#216 = ADVANCED_FACE ( 'NONE', ( #192 ), #233, .F. ) ;
#217 = CARTESIAN_POINT ( 'NONE',  ( 0.3829073522675737751, -10.19107590338440161, -4.884192362830893863 ) ) ;
#218 = SURFACE_STYLE_USAGE ( .BOTH. , #465 ) ;
#219 = VERTEX_POINT ( 'NONE', #725 ) ;
#220 = CARTESIAN_POINT ( 'NONE',  ( 0.000000000000000000, -15.00000000000000000, -7.500000000000000000 ) ) ;
#221 = DIRECTION ( 'NONE',  ( 0.000000000000000000, 0.000000000000000000, -1.000000000000000000 ) ) ;
#222 = ORIENTED_EDGE ( 'NONE', *, *, #119, .T. ) ;
#223 = EDGE_CURVE ( 'NONE', #382, #455, #184, .T. ) ;
#224 = CARTESIAN_POINT ( 'NONE',  ( 0.7928951595380159256, -9.411037963384556448, -3.715839925654693232 ) ) ;
#225 = FACE_BOUND ( 'NONE', #185, .T. ) ;
#226 = VECTOR ( 'NONE', #605, 1000.000000000000000 ) ;
#227 = ORIENTED_EDGE ( 'NONE', *, *, #119, .F. ) ;
#228 = AXIS2_PLACEMENT_3D ( 'NONE', #777, #232, #712 ) ;
#229 = CARTESIAN_POINT ( 'NONE',  ( 0.000000000000000000, -15.00000000000000000, -5.333030277982335754 ) ) ;
#230 = CARTESIAN_POINT ( 'NONE',  ( 0.4538885684030881107, -10.02271636029741408, 4.770922658129504335 ) ) ;
#231 = ORIENTED_EDGE ( 'NONE', *, *, #450, .F. ) ;
#232 = DIRECTION ( 'NONE',  ( -0.000000000000000000, -1.000000000000000000, -0.000000000000000000 ) ) ;
#233 = CYLINDRICAL_SURFACE ( 'NONE', #575, 1.600000000000001865 ) ;
#234 = VERTEX_POINT ( 'NONE', #310 ) ;
#235 = CARTESIAN_POINT ( 'NONE',  ( -1.700000000000000178, 0.000000000000000000, -3.499999999999999556 ) ) ;
#236 = CARTESIAN_POINT ( 'NONE',  ( 0.6957535355416081257, -9.567979844539614476, 4.221250969301578060 ) ) ;
#237 = ORIENTED_EDGE ( 'NONE', *, *, #596, .T. ) ;
#238 = EDGE_CURVE ( 'NONE', #563, #42, #441, .T. ) ;
#239 = STYLED_ITEM ( 'NONE', ( #706 ), #117 ) ;
#240 = CIRCLE ( 'NONE', #362, 2.500000000000000444 ) ;
#241 = LINE ( 'NONE', #724, #517 ) ;
#242 = AXIS2_PLACEMENT_3D ( 'NONE', #680, #503, #318 ) ;
#243 = CARTESIAN_POINT ( 'NONE',  ( -7.000000000000000000, -8.572527594031473190E-16, 7.500000000000000000 ) ) ;
#244 = ORIENTED_EDGE ( 'NONE', *, *, #33, .F. ) ;
#245 = FACE_BOUND ( 'NONE', #138, .T. ) ;
#246 = PLANE ( 'NONE',  #177 ) ;
#247 = ORIENTED_EDGE ( 'NONE', *, *, #728, .T. ) ;
#248 = CARTESIAN_POINT ( 'NONE',  ( 0.000000000000000000, 0.000000000000000000, 7.500000000000000000 ) ) ;
#249 = ADVANCED_FACE ( 'NONE', ( #10 ), #246, .F. ) ;
#250 = CARTESIAN_POINT ( 'NONE',  ( 0.7707501468043683746, -12.55526974263303508, -3.069301025690774676 ) ) ;
#251 = VERTEX_POINT ( 'NONE', #381 ) ;
#252 =( GEOMETRIC_REPRESENTATION_CONTEXT ( 3 ) GLOBAL_UNCERTAINTY_ASSIGNED_CONTEXT ( ( #366 ) ) GLOBAL_UNIT_ASSIGNED_CONTEXT ( ( #40, #344, #757 ) ) REPRESENTATION_CONTEXT ( 'NONE', 'WORKASPACE' ) );
#253 = LINE ( 'NONE', #248, #56 ) ;
#254 = CARTESIAN_POINT ( 'NONE',  ( 0.8000000000000003775, -9.399999999999998579, 3.499999999999999556 ) ) ;
#255 = EDGE_LOOP ( 'NONE', ( #485, #17, #227, #49 ) ) ;
#256 = LINE ( 'NONE', #329, #321 ) ;
#257 = CARTESIAN_POINT ( 'NONE',  ( 0.7456107834540401935, -9.486042440331415193, 2.971863929906925161 ) ) ;
#258 = ORIENTED_EDGE ( 'NONE', *, *, #752, .F. ) ;
#259 = EDGE_CURVE ( 'NONE', #391, #374, #746, .T. ) ;
#260 = DIRECTION ( 'NONE',  ( -1.000000000000000000, -0.000000000000000000, -0.000000000000000000 ) ) ;
#261 = PRODUCT_DEFINITION_SHAPE ( 'NONE', 'NONE',  #103 ) ;
#262 = CARTESIAN_POINT ( 'NONE',  ( 0.2207727905429108239, -11.21542719269698196, 1.899802526683970871 ) ) ;
#263 = CARTESIAN_POINT ( 'NONE',  ( 2.999999999999998224, 2.499999999999999112, 7.500000000000000000 ) ) ;
#264 = VERTEX_POINT ( 'NONE', #566 ) ;
#265 = CARTESIAN_POINT ( 'NONE',  ( 0.000000000000000000, -15.00000000000000000, 7.500000000000000000 ) ) ;
#266 = ADVANCED_BREP_SHAPE_REPRESENTATION ( 'fixing part 2', ( #117, #32 ), #206 ) ;
#267 = AXIS2_PLACEMENT_3D ( 'NONE', #214, #293, #713 ) ;
#268 = CARTESIAN_POINT ( 'NONE',  ( 0.6701970221818429607, -12.39001501809242001, 2.679860028708950459 ) ) ;
#269 = CIRCLE ( 'NONE', #191, 2.500000000000000444 ) ;
#270 = AXIS2_PLACEMENT_3D ( 'NONE', #94, #697, #585 ) ;
#271 = CARTESIAN_POINT ( 'NONE',  ( 2.999999999999998224, 2.499999999999999112, -7.500000000000000000 ) ) ;
#272 = VECTOR ( 'NONE', #677, 1000.000000000000000 ) ;
#273 = VERTEX_POINT ( 'NONE', #750 ) ;
#274 = CARTESIAN_POINT ( 'NONE',  ( -7.000000000000000000, -8.572527594031473190E-16, 7.500000000000000000 ) ) ;
#275 = CARTESIAN_POINT ( 'NONE',  ( -12.00000000000000000, -11.00000000000000000, -3.499999999999999556 ) ) ;
#276 = CARTESIAN_POINT ( 'NONE',  ( 0.000000000000000000, 0.000000000000000000, 0.000000000000000000 ) ) ;
#277 = EDGE_CURVE ( 'NONE', #391, #100, #522, .T. ) ;
#278 = PLANE ( 'NONE',  #636 ) ;
#279 = DIRECTION ( 'NONE',  ( -0.000000000000000000, -0.000000000000000000, -1.000000000000000000 ) ) ;
#280 = CARTESIAN_POINT ( 'NONE',  ( -3.000000000000000000, 2.499999999999999112, 3.499999999999999556 ) ) ;
#281 = CARTESIAN_POINT ( 'NONE',  ( 0.2210010245266467721, -11.21514185898828408, 5.099923458689294975 ) ) ;
#282 = VECTOR ( 'NONE', #279, 1000.000000000000000 ) ;
#283 = ORIENTED_EDGE ( 'NONE', *, *, #326, .F. ) ;
#284 = CARTESIAN_POINT ( 'NONE',  ( 0.8000000000000003775, -9.399999999999998579, -3.609101738535467341 ) ) ;
#285 = DIRECTION ( 'NONE',  ( 1.000000000000000000, 4.818676322157798854E-17, -0.000000000000000000 ) ) ;
#286 = ORIENTED_EDGE ( 'NONE', *, *, #446, .T. ) ;
#287 = EDGE_CURVE ( 'NONE', #7, #219, #77, .T. ) ;
#288 = APPLICATION_PROTOCOL_DEFINITION ( 'draft international standard', 'automotive_design', 1998, #632 ) ;
#289 = CARTESIAN_POINT ( 'NONE',  ( 0.3492663715382152145, -10.28048290689912925, -4.932830999146990969 ) ) ;
#290 = CARTESIAN_POINT ( 'NONE',  ( -3.000000000000000000, -12.50000000000000000, -3.499999999999999556 ) ) ;
#291 = ORIENTED_EDGE ( 'NONE', *, *, #64, .F. ) ;
#292 = CARTESIAN_POINT ( 'NONE',  ( 0.6015043503199533070, -12.27381550664587095, -4.489636543619215381 ) ) ;
#293 = DIRECTION ( 'NONE',  ( -0.000000000000000000, -1.000000000000000000, -0.000000000000000000 ) ) ;
#294 = AXIS2_PLACEMENT_3D ( 'NONE', #401, #98, #92 ) ;
#295 = EDGE_LOOP ( 'NONE', ( #300, #768, #556, #161 ) ) ;
#296 = VECTOR ( 'NONE', #486, 1000.000000000000000 ) ;
#297 = VECTOR ( 'NONE', #260, 1000.000000000000000 ) ;
#298 = CARTESIAN_POINT ( 'NONE',  ( -12.00000000000000000, -11.00000000000000000, 3.499999999999999556 ) ) ;
#299 = CARTESIAN_POINT ( 'NONE',  ( 0.4915846160015802657, -9.943166291576257976, 4.705581703533751714 ) ) ;
#300 = ORIENTED_EDGE ( 'NONE', *, *, #639, .F. ) ;
#301 = CARTESIAN_POINT ( 'NONE',  ( 0.8000000000000003775, -9.399999999999998579, -3.499999999999999556 ) ) ;
#302 = EDGE_CURVE ( 'NONE', #361, #654, #36, .T. ) ;
#303 = CARTESIAN_POINT ( 'NONE',  ( 0.3827631753784097035, -11.80855524568022119, -2.115591428714741262 ) ) ;
#304 = ORIENTED_EDGE ( 'NONE', *, *, #408, .F. ) ;
#305 = PLANE ( 'NONE',  #696 ) ;
#306 = CARTESIAN_POINT ( 'NONE',  ( 0.8000000000000003775, -9.399999999999998579, -3.499999999999999556 ) ) ;
#307 = ORIENTED_EDGE ( 'NONE', *, *, #639, .T. ) ;
#308 = AXIS2_PLACEMENT_3D ( 'NONE', #459, #691, #322 ) ;
#309 = DIRECTION ( 'NONE',  ( -1.000000000000000000, -1.224646799147353207E-16, 0.000000000000000000 ) ) ;
#310 = CARTESIAN_POINT ( 'NONE',  ( 2.999999999999999112, -12.59999999999999964, 3.499999999999999556 ) ) ;
#311 = VERTEX_POINT ( 'NONE', #132 ) ;
#312 = EDGE_CURVE ( 'NONE', #273, #234, #43, .T. ) ;
#313 = DIRECTION ( 'NONE',  ( 0.000000000000000000, -1.000000000000000000, 0.000000000000000000 ) ) ;
#314 = CARTESIAN_POINT ( 'NONE',  ( 0.7652289723294212198, -9.454801840031128890, -3.071163721562502058 ) ) ;
#315 = ORIENTED_EDGE ( 'NONE', *, *, #169, .T. ) ;
#316 = CARTESIAN_POINT ( 'NONE',  ( 0.3492663715382148815, -10.28048290689913102, 2.067169000853008587 ) ) ;
#317 = ORIENTED_EDGE ( 'NONE', *, *, #762, .T. ) ;
#318 = DIRECTION ( 'NONE',  ( -1.000000000000000000, -1.224646799147353454E-16, 0.000000000000000000 ) ) ;
#319 = CIRCLE ( 'NONE', #415, 1.600000000000001643 ) ;
#320 = FACE_BOUND ( 'NONE', #628, .T. ) ;
#321 = VECTOR ( 'NONE', #332, 1000.000000000000000 ) ;
#322 = DIRECTION ( 'NONE',  ( 1.000000000000000000, 0.000000000000000000, -0.000000000000000000 ) ) ;
#323 = ORIENTED_EDGE ( 'NONE', *, *, #530, .T. ) ;
#324 = FACE_OUTER_BOUND ( 'NONE', #614, .T. ) ;
#325 = LINE ( 'NONE', #274, #142 ) ;
#326 = EDGE_CURVE ( 'NONE', #173, #497, #325, .T. ) ;
#327 = CARTESIAN_POINT ( 'NONE',  ( 2.999999999999998224, 2.499999999999999112, -7.500000000000000000 ) ) ;
#328 = ORIENTED_EDGE ( 'NONE', *, *, #302, .F. ) ;
#329 = CARTESIAN_POINT ( 'NONE',  ( 0.000000000000000000, 7.071067811865478170, -5.333030277982335754 ) ) ;
#330 = DIRECTION ( 'NONE',  ( 0.000000000000000000, 1.000000000000000000, 0.000000000000000000 ) ) ;
#331 = FACE_BOUND ( 'NONE', #462, .T. ) ;
#332 = DIRECTION ( 'NONE',  ( 0.000000000000000000, 1.000000000000000000, 0.000000000000000000 ) ) ;
#333 = VECTOR ( 'NONE', #756, 1000.000000000000000 ) ;
#334 = CARTESIAN_POINT ( 'NONE',  ( 2.999999999999998224, 2.499999999999999112, 7.500000000000000000 ) ) ;
#335 = VECTOR ( 'NONE', #655, 1000.000000000000000 ) ;
#336 = VERTEX_POINT ( 'NONE', #678 ) ;
#337 = EDGE_LOOP ( 'NONE', ( #222, #46, #552, #682, #37, #400, #75, #595 ) ) ;
#338 = EDGE_CURVE ( 'NONE', #567, #699, #573, .T. ) ;
#339 = DIRECTION ( 'NONE',  ( 1.000000000000000000, 0.000000000000000000, 0.000000000000000000 ) ) ;
#340 = DIRECTION ( 'NONE',  ( 0.000000000000000000, 1.000000000000000000, 0.000000000000000000 ) ) ;
#341 = DIRECTION ( 'NONE',  ( -0.000000000000000000, -0.000000000000000000, -1.000000000000000000 ) ) ;
#342 = EDGE_CURVE ( 'NONE', #200, #734, #622, .T. ) ;
#343 = LINE ( 'NONE', #355, #189 ) ;
#344 =( NAMED_UNIT ( * ) PLANE_ANGLE_UNIT ( ) SI_UNIT ( $, .RADIAN. ) );
#345 = ORIENTED_EDGE ( 'NONE', *, *, #719, .T. ) ;
#346 = DIRECTION ( 'NONE',  ( -0.000000000000000000, -1.000000000000000000, -0.000000000000000000 ) ) ;
#347 = ADVANCED_FACE ( 'NONE', ( #320, #151, #199 ), #19, .F. ) ;
#348 = DIRECTION ( 'NONE',  ( 1.000000000000000000, 4.818676322157798854E-17, -0.000000000000000000 ) ) ;
#349 = AXIS2_PLACEMENT_3D ( 'NONE', #86, #445, #751 ) ;
#350 = VECTOR ( 'NONE', #773, 1000.000000000000000 ) ;
#351 = ORIENTED_EDGE ( 'NONE', *, *, #480, .T. ) ;
#352 = CARTESIAN_POINT ( 'NONE',  ( 0.8000000000000003775, -12.59999999999999787, -3.499999999999999556 ) ) ;
#353 = PLANE ( 'NONE',  #16 ) ;
#354 = ORIENTED_EDGE ( 'NONE', *, *, #505, .T. ) ;
#355 = CARTESIAN_POINT ( 'NONE',  ( -7.000000000000000000, -8.572527594031473190E-16, -7.500000000000000000 ) ) ;
#356 = CARTESIAN_POINT ( 'NONE',  ( -12.00000000000000000, -9.399999999999998579, 3.499999999999999556 ) ) ;
#357 = EDGE_LOOP ( 'NONE', ( #548, #702, #776, #354 ) ) ;
#358 = CARTESIAN_POINT ( 'NONE',  ( -3.000000000000000000, 2.499999999999999112, -3.499999999999999556 ) ) ;
#359 = CARTESIAN_POINT ( 'NONE',  ( 0.5999598775934323891, -9.734266510601425892, 4.484125204073867721 ) ) ;
#360 = VECTOR ( 'NONE', #383, 1000.000000000000000 ) ;
#361 = VERTEX_POINT ( 'NONE', #35 ) ;
#362 = AXIS2_PLACEMENT_3D ( 'NONE', #235, #371, #309 ) ;
#363 = ADVANCED_FACE ( 'NONE', ( #681 ), #141, .F. ) ;
#364 = DIRECTION ( 'NONE',  ( 0.000000000000000000, 0.000000000000000000, 1.000000000000000000 ) ) ;
#365 = CARTESIAN_POINT ( 'NONE',  ( 0.2647205300465528266, -10.57485442912138396, -1.953835041416503993 ) ) ;
#366 = UNCERTAINTY_MEASURE_WITH_UNIT (LENGTH_MEASURE( 1.000000000000000082E-05 ), #40, 'distance_accuracy_value', 'NONE');
#367 = ORIENTED_EDGE ( 'NONE', *, *, #97, .F. ) ;
#368 = CARTESIAN_POINT ( 'NONE',  ( 3.000000000000000000, -15.00000000000000000, 7.500000000000000000 ) ) ;
#369 = CARTESIAN_POINT ( 'NONE',  ( 0.3490127891127726700, -10.28108994779073804, -2.066793943733995054 ) ) ;
#370 = ORIENTED_EDGE ( 'NONE', *, *, #741, .T. ) ;
#371 = DIRECTION ( 'NONE',  ( 1.224646799147353207E-16, -1.000000000000000000, -0.000000000000000000 ) ) ;
#372 = CARTESIAN_POINT ( 'NONE',  ( 0.7926963291525717104, -9.411346967733505764, 3.718447820647838409 ) ) ;
#373 = EDGE_CURVE ( 'NONE', #38, #431, #528, .T. ) ;
#374 = VERTEX_POINT ( 'NONE', #168 ) ;
#375 = CIRCLE ( 'NONE', #722, 1.600000000000000755 ) ;
#376 = AXIS2_PLACEMENT_3D ( 'NONE', #73, #190, #625 ) ;
#377 = LINE ( 'NONE', #611, #402 ) ;
#378 = CARTESIAN_POINT ( 'NONE',  ( 0.5645516290579499774, -9.799146787140537995, -2.437796492040662510 ) ) ;
#379 = ORIENTED_EDGE ( 'NONE', *, *, #20, .F. ) ;
#380 = DIRECTION ( 'NONE',  ( 1.000000000000000000, 0.000000000000000000, 0.000000000000000000 ) ) ;
#381 = CARTESIAN_POINT ( 'NONE',  ( 4.336808689942017736E-16, 2.081899558550501019E-16, 5.333030277982335754 ) ) ;
#382 = VERTEX_POINT ( 'NONE', #220 ) ;
#383 = DIRECTION ( 'NONE',  ( 0.000000000000000000, 1.000000000000000000, 0.000000000000000000 ) ) ;
#384 = CARTESIAN_POINT ( 'NONE',  ( 0.000000000000000000, 2.081899558550500526E-16, 1.666969722017662914 ) ) ;
#385 = ORIENTED_EDGE ( 'NONE', *, *, #223, .F. ) ;
#386 = CIRCLE ( 'NONE', #113, 2.500000000000000444 ) ;
#387 = DIRECTION ( 'NONE',  ( -1.224646799147353207E-16, 1.000000000000000000, 0.000000000000000000 ) ) ;
#388 = EDGE_CURVE ( 'NONE', #38, #723, #670, .T. ) ;
#389 = CARTESIAN_POINT ( 'NONE',  ( 0.000000000000000000, 0.000000000000000000, -7.500000000000000000 ) ) ;
#390 = ORIENTED_EDGE ( 'NONE', *, *, #671, .T. ) ;
#391 = VERTEX_POINT ( 'NONE', #102 ) ;
#392 = CARTESIAN_POINT ( 'NONE',  ( 0.000000000000000000, -15.00000000000000000, 7.500000000000000000 ) ) ;
#393 = EDGE_CURVE ( 'NONE', #26, #455, #418, .T. ) ;
#394 = CARTESIAN_POINT ( 'NONE',  ( 0.6009638180598759760, -9.727293028304858424, 2.509370915945686953 ) ) ;
#395 = ORIENTED_EDGE ( 'NONE', *, *, #704, .T. ) ;
#396 = DIRECTION ( 'NONE',  ( -0.000000000000000000, -1.000000000000000000, -0.000000000000000000 ) ) ;
#397 = DIRECTION ( 'NONE',  ( -1.000000000000000000, -0.000000000000000000, -0.000000000000000000 ) ) ;
#398 = FACE_BOUND ( 'NONE', #617, .T. ) ;
#399 = EDGE_CURVE ( 'NONE', #200, #603, #91, .T. ) ;
#400 = ORIENTED_EDGE ( 'NONE', *, *, #223, .T. ) ;
#401 = CARTESIAN_POINT ( 'NONE',  ( -3.000000000000000000, 0.000000000000000000, -3.499999999999999556 ) ) ;
#402 = VECTOR ( 'NONE', #70, 1000.000000000000000 ) ;
#403 = DIRECTION ( 'NONE',  ( -1.000000000000000000, -1.224646799147353207E-16, 0.000000000000000000 ) ) ;
#404 = DIRECTION ( 'NONE',  ( -0.000000000000000000, 1.000000000000000000, -0.000000000000000000 ) ) ;
#405 = CARTESIAN_POINT ( 'NONE',  ( -7.000000000000000000, -8.572527594031473190E-16, 7.500000000000000000 ) ) ;
#406 = B_SPLINE_CURVE_WITH_KNOTS ( 'NONE', 3,
 ( #60, #115, #250, #716, #721, #1, #493, #303, #546, #71, #5, #430, #120, #365, #602, #369, #128, #57, #13, #378, #496, #499, #609, #775, #314, #175, #63, #306 ),
 .UNSPECIFIED., .F., .F.,
 ( 4, 2, 2, 2, 2, 2, 2, 2, 2, 2, 2, 2, 2, 4 ),
 ( 0.005153998452365554650, 0.005797518827629292992, 0.006441039202893031335, 0.006762799390524901373, 0.007084559578156771412, 0.007728079953420510621, 0.008049840141052378925, 0.008371600328684244627, 0.008693360516316112063, 0.009015120703947979500, 0.009336880891579846936, 0.009658641079211712638, 0.009980401266843580074, 0.01030216145447544751 ),
 .UNSPECIFIED. ) ;
#407 = ORIENTED_EDGE ( 'NONE', *, *, #704, .F. ) ;
#408 = EDGE_CURVE ( 'NONE', #667, #734, #204, .T. ) ;
#409 = CARTESIAN_POINT ( 'NONE',  ( -3.000000000000000000, 0.000000000000000000, 3.499999999999999556 ) ) ;
#410 = VERTEX_POINT ( 'NONE', #229 ) ;
#411 = ADVANCED_FACE ( 'NONE', ( #652 ), #474, .F. ) ;
#412 = CARTESIAN_POINT ( 'NONE',  ( 0.2598523662585801031, -11.42929072568416515, -5.055304559414484089 ) ) ;
#413 = LINE ( 'NONE', #645, #282 ) ;
#414 = CIRCLE ( 'NONE', #215, 1.600000000000001865 ) ;
#415 = AXIS2_PLACEMENT_3D ( 'NONE', #280, #178, #727 ) ;
#416 = ORIENTED_EDGE ( 'NONE', *, *, #521, .F. ) ;
#417 = CIRCLE ( 'NONE', #748, 1.600000000000000755 ) ;
#418 = LINE ( 'NONE', #213, #333 ) ;
#419 = CARTESIAN_POINT ( 'NONE',  ( 0.7707501468043687076, -12.55526974263303508, 3.930698974309224436 ) ) ;
#420 = ORIENTED_EDGE ( 'NONE', *, *, #393, .T. ) ;
#421 = FACE_OUTER_BOUND ( 'NONE', #105, .T. ) ;
#422 = ORIENTED_EDGE ( 'NONE', *, *, #287, .T. ) ;
#423 = EDGE_CURVE ( 'NONE', #219, #497, #343, .T. ) ;
#424 = CYLINDRICAL_SURFACE ( 'NONE', #228, 2.500000000000000444 ) ;
#425 = DIRECTION ( 'NONE',  ( 0.000000000000000000, 0.000000000000000000, 1.000000000000000000 ) ) ;
#426 = VECTOR ( 'NONE', #397, 1000.000000000000000 ) ;
#427 = ORIENTED_EDGE ( 'NONE', *, *, #470, .F. ) ;
#428 = EDGE_CURVE ( 'NONE', #563, #311, #717, .T. ) ;
#429 = DIRECTION ( 'NONE',  ( 0.000000000000000000, -0.000000000000000000, -1.000000000000000000 ) ) ;
#430 = CARTESIAN_POINT ( 'NONE',  ( 0.2209055214287815871, -10.89328405428566526, -1.899961881635749084 ) ) ;
#431 = VERTEX_POINT ( 'NONE', #39 ) ;
#432 = CARTESIAN_POINT ( 'NONE',  ( 0.000000000000000000, 0.000000000000000000, 7.500000000000000000 ) ) ;
#433 = ADVANCED_FACE ( 'NONE', ( #581 ), #278, .F. ) ;
#434 = DIRECTION ( 'NONE',  ( 1.000000000000000000, -0.000000000000000000, -0.000000000000000000 ) ) ;
#435 = EDGE_LOOP ( 'NONE', ( #761, #244, #494, #420 ) ) ;
#436 = FACE_BOUND ( 'NONE', #194, .T. ) ;
#437 = CARTESIAN_POINT ( 'NONE',  ( 0.000000000000000000, -15.00000000000000000, 7.500000000000000000 ) ) ;
#438 = EDGE_LOOP ( 'NONE', ( #58, #345, #133, #711 ) ) ;
#439 = AXIS2_PLACEMENT_3D ( 'NONE', #389, #453, #644 ) ;
#440 = CARTESIAN_POINT ( 'NONE',  ( 2.999999999999999112, -11.00000000000000000, -3.499999999999999556 ) ) ;
#441 = LINE ( 'NONE', #555, #226 ) ;
#442 = ORIENTED_EDGE ( 'NONE', *, *, #491, .F. ) ;
#443 = CARTESIAN_POINT ( 'NONE',  ( -12.00000000000000000, -11.00000000000000000, 3.499999999999999556 ) ) ;
#444 = CARTESIAN_POINT ( 'NONE',  ( 0.6708760430693788690, -9.608858466968886347, 2.682255517218337104 ) ) ;
#445 = DIRECTION ( 'NONE',  ( 1.000000000000000000, 0.000000000000000000, 0.000000000000000000 ) ) ;
#446 = EDGE_CURVE ( 'NONE', #234, #273, #490, .T. ) ;
#447 = CARTESIAN_POINT ( 'NONE',  ( -3.000000000000000000, 0.000000000000000000, 3.499999999999999556 ) ) ;
#448 = DIRECTION ( 'NONE',  ( 9.912705577010328015E-17, -1.000000000000000000, 0.000000000000000000 ) ) ;
#449 = ORIENTED_EDGE ( 'NONE', *, *, #238, .F. ) ;
#450 = EDGE_CURVE ( 'NONE', #734, #667, #319, .T. ) ;
#451 = VECTOR ( 'NONE', #434, 1000.000000000000000 ) ;
#452 = CARTESIAN_POINT ( 'NONE',  ( -7.000000000000000000, 2.499999999999999112, 7.500000000000000000 ) ) ;
#453 = DIRECTION ( 'NONE',  ( 0.000000000000000000, -0.000000000000000000, 1.000000000000000000 ) ) ;
#454 = PRODUCT ( 'fixing part 2', 'fixing part 2', '', ( #460 ) ) ;
#455 = VERTEX_POINT ( 'NONE', #615 ) ;
#456 = CARTESIAN_POINT ( 'NONE',  ( 0.000000000000000000, 7.071067811865478170, -1.666969722017662914 ) ) ;
#457 = EDGE_CURVE ( 'NONE', #410, #382, #241, .T. ) ;
#458 = CARTESIAN_POINT ( 'NONE',  ( 0.3827005762973161862, -11.80840771636873932, 2.115491046007344167 ) ) ;
#459 = CARTESIAN_POINT ( 'NONE',  ( 0.000000000000000000, 0.000000000000000000, 7.500000000000000000 ) ) ;
#460 = PRODUCT_CONTEXT ( 'NONE', #772, 'mechanical' ) ;
#461 = CARTESIAN_POINT ( 'NONE',  ( 0.2598523662585799365, -11.42929072568416160, 1.944695440585516799 ) ) ;
#462 = EDGE_LOOP ( 'NONE', ( #718, #390 ) ) ;
#463 = VECTOR ( 'NONE', #341, 1000.000000000000000 ) ;
#464 = DIRECTION ( 'NONE',  ( 0.000000000000000000, 0.000000000000000000, 1.000000000000000000 ) ) ;
#465 = SURFACE_SIDE_STYLE ('',( #476 ) ) ;
#466 = ORIENTED_EDGE ( 'NONE', *, *, #193, .F. ) ;
#467 = CARTESIAN_POINT ( 'NONE',  ( 0.3482985892471872624, -11.71682942051738152, -4.934214517359308161 ) ) ;
#468 = CARTESIAN_POINT ( 'NONE',  ( 0.6706767234557432511, -12.39081480131284074, 4.318535135024740512 ) ) ;
#469 = VERTEX_POINT ( 'NONE', #720 ) ;
#470 = EDGE_CURVE ( 'NONE', #100, #251, #269, .T. ) ;
#471 = CARTESIAN_POINT ( 'NONE',  ( -3.000000000000000000, -12.50000000000000000, -1.899999999999997913 ) ) ;
#472 = LINE ( 'NONE', #99, #53 ) ;
#473 = ORIENTED_EDGE ( 'NONE', *, *, #147, .F. ) ;
#474 = CYLINDRICAL_SURFACE ( 'NONE', #164, 1.600000000000001643 ) ;
#475 = VECTOR ( 'NONE', #285, 1000.000000000000000 ) ;
#476 = SURFACE_STYLE_FILL_AREA ( #48 ) ;
#477 = AXIS2_PLACEMENT_3D ( 'NONE', #443, #510, #23 ) ;
#478 = EDGE_LOOP ( 'NONE', ( #14, #283, #473, #583 ) ) ;
#479 = FACE_OUTER_BOUND ( 'NONE', #599, .T. ) ;
#480 = EDGE_CURVE ( 'NONE', #730, #42, #375, .T. ) ;
#481 = CARTESIAN_POINT ( 'NONE',  ( 0.3490127891127720594, -10.28108994779073626, 4.933206056266005390 ) ) ;
#482 = ORIENTED_EDGE ( 'NONE', *, *, #428, .F. ) ;
#483 = CARTESIAN_POINT ( 'NONE',  ( -1.700000000000000178, 0.000000000000000000, 3.499999999999999556 ) ) ;
#484 = CARTESIAN_POINT ( 'NONE',  ( 0.7453639506053170161, -9.486444063304983132, 4.029181549998237521 ) ) ;
#485 = ORIENTED_EDGE ( 'NONE', *, *, #774, .T. ) ;
#486 = DIRECTION ( 'NONE',  ( -0.000000000000000000, -0.000000000000000000, -1.000000000000000000 ) ) ;
#487 = CARTESIAN_POINT ( 'NONE',  ( 0.8000000000000003775, -9.399999999999998579, 3.499999999999999556 ) ) ;
#488 = AXIS2_PLACEMENT_3D ( 'NONE', #203, #24, #578 ) ;
#489 = ORIENTED_EDGE ( 'NONE', *, *, #8, .F. ) ;
#490 = CIRCLE ( 'NONE', #270, 1.600000000000000755 ) ;
#491 = EDGE_CURVE ( 'NONE', #157, #559, #492, .T. ) ;
#492 = LINE ( 'NONE', #432, #296 ) ;
#493 = CARTESIAN_POINT ( 'NONE',  ( 0.4539285872308986836, -11.97737786934999882, -2.229141558603023654 ) ) ;
#494 = ORIENTED_EDGE ( 'NONE', *, *, #182, .F. ) ;
#495 = FACE_OUTER_BOUND ( 'NONE', #111, .T. ) ;
#496 = CARTESIAN_POINT ( 'NONE',  ( 0.5999598775934319450, -9.734266510601429445, -2.515874795926131391 ) ) ;
#497 = VERTEX_POINT ( 'NONE', #600 ) ;
#498 = CYLINDRICAL_SURFACE ( 'NONE', #477, 1.600000000000000755 ) ;
#499 = CARTESIAN_POINT ( 'NONE',  ( 0.6655543154252592242, -9.618655348266567984, -2.686077008184458936 ) ) ;
#500 = UNCERTAINTY_MEASURE_WITH_UNIT (LENGTH_MEASURE( 1.000000000000000082E-05 ), #560, 'distance_accuracy_value', 'NONE');
#501 = ORIENTED_EDGE ( 'NONE', *, *, #259, .T. ) ;
#502 = AXIS2_PLACEMENT_3D ( 'NONE', #275, #679, #205 ) ;
#503 = DIRECTION ( 'NONE',  ( -1.224646799147353207E-16, 1.000000000000000000, 0.000000000000000000 ) ) ;
#504 = CARTESIAN_POINT ( 'NONE',  ( 0.7456761603339127076, -12.51407028828463730, 2.972000006731430499 ) ) ;
#505 = EDGE_CURVE ( 'NONE', #431, #264, #30, .T. ) ;
#506 = PLANE ( 'NONE',  #349 ) ;
#507 = CARTESIAN_POINT ( 'NONE',  ( 0.000000000000000000, -15.00000000000000000, -7.500000000000000000 ) ) ;
#508 = DIRECTION ( 'NONE',  ( -1.000000000000000000, -9.912705577010328015E-17, 0.000000000000000000 ) ) ;
#509 = LINE ( 'NONE', #263, #463 ) ;
#510 = DIRECTION ( 'NONE',  ( 1.000000000000000000, 4.818676322157798854E-17, -0.000000000000000000 ) ) ;
#511 = CARTESIAN_POINT ( 'NONE',  ( 0.8000000000000004885, -12.60000000000000142, 3.392423128749316064 ) ) ;
#512 = CARTESIAN_POINT ( 'NONE',  ( 2.999999999999999112, -9.399999999999998579, -3.499999999999999556 ) ) ;
#513 = EDGE_LOOP ( 'NONE', ( #130, #258, #176, #144 ) ) ;
#514 = PRESENTATION_LAYER_ASSIGNMENT (  '', '', ( #239 ) ) ;
#515 = ADVANCED_FACE ( 'NONE', ( #436, #665, #421 ), #305, .F. ) ;
#516 = LINE ( 'NONE', #633, #758 ) ;
#517 = VECTOR ( 'NONE', #604, 1000.000000000000000 ) ;
#518 = CARTESIAN_POINT ( 'NONE',  ( 0.000000000000000000, 7.071067811865478170, 1.666969722017662914 ) ) ;
#519 = CIRCLE ( 'NONE', #242, 1.600000000000001643 ) ;
#520 = CARTESIAN_POINT ( 'NONE',  ( -12.00000000000000000, -12.59999999999999964, 3.499999999999999556 ) ) ;
#521 = EDGE_CURVE ( 'NONE', #251, #374, #377, .T. ) ;
#522 = LINE ( 'NONE', #518, #360 ) ;
#523 = PLANE ( 'NONE',  #155 ) ;
#524 = DIRECTION ( 'NONE',  ( 0.000000000000000000, 1.000000000000000000, -0.000000000000000000 ) ) ;
#525 = DIRECTION ( 'NONE',  ( 0.000000000000000000, 0.000000000000000000, 1.000000000000000000 ) ) ;
#526 = SHAPE_DEFINITION_REPRESENTATION ( #261, #266 ) ;
#527 = VECTOR ( 'NONE', #163, 1000.000000000000000 ) ;
#528 = LINE ( 'NONE', #471, #67 ) ;
#529 = CARTESIAN_POINT ( 'NONE',  ( 0.2209055214287813929, -10.89328405428566526, 5.100038118364250472 ) ) ;
#530 = EDGE_CURVE ( 'NONE', #157, #740, #240, .T. ) ;
#531 = ORIENTED_EDGE ( 'NONE', *, *, #423, .F. ) ;
#532 = CARTESIAN_POINT ( 'NONE',  ( 0.4911398866818667552, -12.05594266918979329, -4.706433457652697605 ) ) ;
#533 = ORIENTED_EDGE ( 'NONE', *, *, #618, .F. ) ;
#534 = CARTESIAN_POINT ( 'NONE',  ( 0.6708760430693795351, -9.608858466968884571, -4.317744482781662896 ) ) ;
#535 = CARTESIAN_POINT ( 'NONE',  ( 4.336808689942017736E-16, 2.081899558550501019E-16, -5.333030277982335754 ) ) ;
#536 = ORIENTED_EDGE ( 'NONE', *, *, #338, .T. ) ;
#537 = ADVANCED_FACE ( 'NONE', ( #668 ), #554, .F. ) ;
#538 = CARTESIAN_POINT ( 'NONE',  ( -3.000000000000000000, 2.499999999999999112, 3.499999999999999556 ) ) ;
#539 = AXIS2_PLACEMENT_3D ( 'NONE', #409, #589, #593 ) ;
#540 = DIRECTION ( 'NONE',  ( -0.000000000000000000, 1.000000000000000000, -0.000000000000000000 ) ) ;
#541 = ORIENTED_EDGE ( 'NONE', *, *, #762, .F. ) ;
#542 = CARTESIAN_POINT ( 'NONE',  ( -3.000000000000000000, 0.000000000000000000, 1.899999999999997913 ) ) ;
#543 = CARTESIAN_POINT ( 'NONE',  ( 0.8000000000000007105, -9.400000000000000355, 3.608978211574039641 ) ) ;
#544 = EDGE_LOOP ( 'NONE', ( #367, #579, #643, #22 ) ) ;
#545 = DIRECTION ( 'NONE',  ( 1.000000000000000000, 4.818676322157798854E-17, -0.000000000000000000 ) ) ;
#546 = CARTESIAN_POINT ( 'NONE',  ( 0.3483430588722885024, -11.71692630589683226, -2.065852403210662214 ) ) ;
#547 = PRODUCT_DEFINITION_CONTEXT ( 'detailed design', #632, 'design' ) ;
#548 = ORIENTED_EDGE ( 'NONE', *, *, #649, .F. ) ;
#549 = PLANE ( 'NONE',  #659 ) ;
#550 = DIRECTION ( 'NONE',  ( 0.000000000000000000, -1.000000000000000000, 0.000000000000000000 ) ) ;
#551 = AXIS2_PLACEMENT_3D ( 'NONE', #334, #508, #448 ) ;
#552 = ORIENTED_EDGE ( 'NONE', *, *, #97, .T. ) ;
#553 = VECTOR ( 'NONE', #207, 1000.000000000000000 ) ;
#554 = CYLINDRICAL_SURFACE ( 'NONE', #127, 1.600000000000000755 ) ;
#555 = CARTESIAN_POINT ( 'NONE',  ( -12.00000000000000000, -9.399999999999998579, -3.499999999999999556 ) ) ;
#556 = ORIENTED_EDGE ( 'NONE', *, *, #8, .T. ) ;
#557 = CARTESIAN_POINT ( 'NONE',  ( 0.000000000000000000, 0.000000000000000000, 7.500000000000000000 ) ) ;
#558 = CARTESIAN_POINT ( 'NONE',  ( 0.5645516290579487562, -9.799146787140534443, 4.562203507959339710 ) ) ;
#559 = VERTEX_POINT ( 'NONE', #4 ) ;
#560 =( LENGTH_UNIT ( ) NAMED_UNIT ( * ) SI_UNIT ( .MILLI., .METRE. ) );
#561 = EDGE_CURVE ( 'NONE', #469, #219, #59, .T. ) ;
#562 = CARTESIAN_POINT ( 'NONE',  ( 0.2211028641616546442, -10.78164941686952893, 1.900198808661873517 ) ) ;
#563 = VERTEX_POINT ( 'NONE', #301 ) ;
#564 = CARTESIAN_POINT ( 'NONE',  ( 0.8000000000000002665, -12.59999999999999787, 3.499999999999999556 ) ) ;
#565 = PRODUCT_RELATED_PRODUCT_CATEGORY ( 'part', '', ( #454 ) ) ;
#566 = CARTESIAN_POINT ( 'NONE',  ( -3.000000000000000000, 2.499999999999999112, -5.100000000000002309 ) ) ;
#567 = VERTEX_POINT ( 'NONE', #557 ) ;
#568 = CARTESIAN_POINT ( 'NONE',  ( 0.000000000000000000, -15.00000000000000000, -1.666969722017662914 ) ) ;
#569 = DIRECTION ( 'NONE',  ( -0.000000000000000000, 1.000000000000000000, -0.000000000000000000 ) ) ;
#570 = PLANE ( 'NONE',  #308 ) ;
#571 = ADVANCED_FACE ( 'NONE', ( #245, #479 ), #424, .F. ) ;
#572 = LINE ( 'NONE', #507, #272 ) ;
#573 = LINE ( 'NONE', #739, #733 ) ;
#574 = ORIENTED_EDGE ( 'NONE', *, *, #728, .F. ) ;
#575 = AXIS2_PLACEMENT_3D ( 'NONE', #729, #68, #425 ) ;
#576 = VECTOR ( 'NONE', #126, 1000.000000000000000 ) ;
#577 = LINE ( 'NONE', #749, #553 ) ;
#578 = DIRECTION ( 'NONE',  ( 0.000000000000000000, 0.000000000000000000, -1.000000000000000000 ) ) ;
#579 = ORIENTED_EDGE ( 'NONE', *, *, #277, .T. ) ;
#580 = ORIENTED_EDGE ( 'NONE', *, *, #450, .T. ) ;
#581 = FACE_OUTER_BOUND ( 'NONE', #337, .T. ) ;
#582 = FACE_OUTER_BOUND ( 'NONE', #513, .T. ) ;
#583 = ORIENTED_EDGE ( 'NONE', *, *, #561, .T. ) ;
#584 = ADVANCED_FACE ( 'NONE', ( #495 ), #657, .F. ) ;
#585 = DIRECTION ( 'NONE',  ( 0.000000000000000000, 1.000000000000000000, 0.000000000000000000 ) ) ;
#586 = CYLINDRICAL_SURFACE ( 'NONE', #78, 1.600000000000001865 ) ;
#587 = EDGE_LOOP ( 'NONE', ( #714, #592, #351, #449 ) ) ;
#588 = VECTOR ( 'NONE', #688, 1000.000000000000000 ) ;
#589 = DIRECTION ( 'NONE',  ( -1.224646799147353207E-16, 1.000000000000000000, 0.000000000000000000 ) ) ;
#590 = EDGE_CURVE ( 'NONE', #173, #567, #118, .T. ) ;
#591 = CARTESIAN_POINT ( 'NONE',  ( 0.8000000000000002665, -12.59999999999999787, 3.499999999999999556 ) ) ;
#592 = ORIENTED_EDGE ( 'NONE', *, *, #139, .T. ) ;
#593 = DIRECTION ( 'NONE',  ( -1.000000000000000000, -1.224646799147353454E-16, 0.000000000000000000 ) ) ;
#594 = DIRECTION ( 'NONE',  ( 1.000000000000000000, 0.000000000000000000, 0.000000000000000000 ) ) ;
#595 = ORIENTED_EDGE ( 'NONE', *, *, #596, .F. ) ;
#596 = EDGE_CURVE ( 'NONE', #699, #26, #55, .T. ) ;
#597 = CARTESIAN_POINT ( 'NONE',  ( 0.7658750598948811383, -9.453774308721845543, -3.924939217939590552 ) ) ;
#598 = FACE_OUTER_BOUND ( 'NONE', #357, .T. ) ;
#599 = EDGE_LOOP ( 'NONE', ( #427, #170, #501, #416 ) ) ;
#600 = CARTESIAN_POINT ( 'NONE',  ( -7.000000000000000000, -8.572527594031473190E-16, -7.500000000000000000 ) ) ;
#601 = VECTOR ( 'NONE', #25, 1000.000000000000000 ) ;
#602 = CARTESIAN_POINT ( 'NONE',  ( 0.2896705069930001208, -10.47353349620550134, -1.985488764232012038 ) ) ;
#603 = VERTEX_POINT ( 'NONE', #542 ) ;
#604 = DIRECTION ( 'NONE',  ( -0.000000000000000000, -0.000000000000000000, -1.000000000000000000 ) ) ;
#605 = DIRECTION ( 'NONE',  ( 1.000000000000000000, 4.818676322157798854E-17, -0.000000000000000000 ) ) ;
#606 = ORIENTED_EDGE ( 'NONE', *, *, #774, .F. ) ;
#607 = CARTESIAN_POINT ( 'NONE',  ( -7.000000000000000000, 2.499999999999999112, 7.500000000000000000 ) ) ;
#608 = ADVANCED_FACE ( 'NONE', ( #62 ), #549, .F. ) ;
#609 = CARTESIAN_POINT ( 'NONE',  ( 0.6957535355416077927, -9.567979844539610923, -2.778749030698420608 ) ) ;
#610 = ORIENTED_EDGE ( 'NONE', *, *, #169, .F. ) ;
#611 = CARTESIAN_POINT ( 'NONE',  ( 0.000000000000000000, 7.071067811865478170, 5.333030277982335754 ) ) ;
#612 = DIRECTION ( 'NONE',  ( -9.912705577010326782E-17, 1.000000000000000000, -0.000000000000000000 ) ) ;
#613 = AXIS2_PLACEMENT_3D ( 'NONE', #634, #744, #330 ) ;
#614 = EDGE_LOOP ( 'NONE', ( #3, #31, #286, #624 ) ) ;
#615 = CARTESIAN_POINT ( 'NONE',  ( 3.000000000000000000, -15.00000000000000000, -7.500000000000000000 ) ) ;
#616 = LINE ( 'NONE', #179, #695 ) ;
#617 = EDGE_LOOP ( 'NONE', ( #707, #307 ) ) ;
#618 = EDGE_CURVE ( 'NONE', #100, #740, #253, .T. ) ;
#619 = CARTESIAN_POINT ( 'NONE',  ( 0.6015043503199533070, -12.27381550664586918, 2.510363456380785507 ) ) ;
#620 = ORIENTED_EDGE ( 'NONE', *, *, #590, .F. ) ;
#621 =( NAMED_UNIT ( * ) PLANE_ANGLE_UNIT ( ) SI_UNIT ( $, .RADIAN. ) );
#622 = LINE ( 'NONE', #690, #101 ) ;
#623 = FACE_OUTER_BOUND ( 'NONE', #478, .T. ) ;
#624 = ORIENTED_EDGE ( 'NONE', *, *, #158, .F. ) ;
#625 = DIRECTION ( 'NONE',  ( 0.000000000000000000, 0.000000000000000000, 1.000000000000000000 ) ) ;
#626 = ADVANCED_FACE ( 'NONE', ( #324 ), #498, .F. ) ;
#627 = CARTESIAN_POINT ( 'NONE',  ( 0.7928178514157591117, -12.58884238313810222, 3.283045792343943337 ) ) ;
#628 = EDGE_LOOP ( 'NONE', ( #747, #742 ) ) ;
#629 = DIRECTION ( 'NONE',  ( -1.000000000000000000, -1.224646799147353454E-16, 0.000000000000000000 ) ) ;
#630 = CARTESIAN_POINT ( 'NONE',  ( 0.3829073522675741081, -10.19107590338440517, 2.115807637169107025 ) ) ;
#631 = CARTESIAN_POINT ( 'NONE',  ( -3.000000000000000000, 0.000000000000000000, -1.899999999999997913 ) ) ;
#632 = APPLICATION_CONTEXT ( 'automotive_design' ) ;
#633 = CARTESIAN_POINT ( 'NONE',  ( 0.000000000000000000, 0.000000000000000000, -7.500000000000000000 ) ) ;
#634 = CARTESIAN_POINT ( 'NONE',  ( 2.999999999999999112, -11.00000000000000000, 3.499999999999999556 ) ) ;
#635 = CARTESIAN_POINT ( 'NONE',  ( 3.000000000000000000, -15.00000000000000000, 7.500000000000000000 ) ) ;
#636 = AXIS2_PLACEMENT_3D ( 'NONE', #159, #524, #464 ) ;
#637 = CARTESIAN_POINT ( 'NONE',  ( 0.7928178514157593337, -12.58884238313810577, -3.716954207656057552 ) ) ;
#638 = CARTESIAN_POINT ( 'NONE',  ( 0.000000000000000000, -15.00000000000000000, 7.500000000000000000 ) ) ;
#639 = EDGE_CURVE ( 'NONE', #723, #38, #519, .T. ) ;
#640 = DIRECTION ( 'NONE',  ( 0.000000000000000000, 0.000000000000000000, 1.000000000000000000 ) ) ;
#641 = CARTESIAN_POINT ( 'NONE',  ( 0.6009638180598759760, -9.727293028304856648, -4.490629084054313047 ) ) ;
#642 = FILL_AREA_STYLE_COLOUR ( '', #166 ) ;
#643 = ORIENTED_EDGE ( 'NONE', *, *, #618, .T. ) ;
#644 = DIRECTION ( 'NONE',  ( 1.000000000000000000, 0.000000000000000000, -0.000000000000000000 ) ) ;
#645 = CARTESIAN_POINT ( 'NONE',  ( 0.000000000000000000, -15.00000000000000000, 7.500000000000000000 ) ) ;
#646 = EDGE_LOOP ( 'NONE', ( #533, #61, #606, #620, #108, #247, #442, #323 ) ) ;
#647 = AXIS2_PLACEMENT_3D ( 'NONE', #538, #340, #692 ) ;
#648 = CARTESIAN_POINT ( 'NONE',  ( 0.7456107834540410817, -9.486042440331416969, -4.028136070093073506 ) ) ;
#649 = EDGE_CURVE ( 'NONE', #723, #264, #738, .T. ) ;
#650 = LINE ( 'NONE', #356, #475 ) ;
#651 = EDGE_LOOP ( 'NONE', ( #212, #116, #684, #580 ) ) ;
#652 = FACE_OUTER_BOUND ( 'NONE', #651, .T. ) ;
#653 = CARTESIAN_POINT ( 'NONE',  ( 0.4539285872308986280, -11.97737786934999704, 4.770858441396974570 ) ) ;
#654 = VERTEX_POINT ( 'NONE', #564 ) ;
#655 = DIRECTION ( 'NONE',  ( 1.000000000000000000, 1.224646799147353207E-16, -0.000000000000000000 ) ) ;
#656 = ORIENTED_EDGE ( 'NONE', *, *, #147, .T. ) ;
#657 = CYLINDRICAL_SURFACE ( 'NONE', #672, 1.600000000000000755 ) ;
#658 = DIRECTION ( 'NONE',  ( 0.000000000000000000, 0.000000000000000000, -1.000000000000000000 ) ) ;
#659 = AXIS2_PLACEMENT_3D ( 'NONE', #392, #380, #689 ) ;
#660 = ORIENTED_EDGE ( 'NONE', *, *, #312, .F. ) ;
#661 = EDGE_CURVE ( 'NONE', #740, #676, #674, .T. ) ;
#662 = DIRECTION ( 'NONE',  ( 0.000000000000000000, 1.000000000000000000, 0.000000000000000000 ) ) ;
#663 = CARTESIAN_POINT ( 'NONE',  ( 0.6655543154252597793, -9.618655348266569760, 4.313922991815539731 ) ) ;
#664 = ORIENTED_EDGE ( 'NONE', *, *, #752, .T. ) ;
#665 = FACE_BOUND ( 'NONE', #673, .T. ) ;
#666 = DIRECTION ( 'NONE',  ( 0.000000000000000000, 0.000000000000000000, -1.000000000000000000 ) ) ;
#667 = VERTEX_POINT ( 'NONE', #198 ) ;
#668 = FACE_OUTER_BOUND ( 'NONE', #587, .T. ) ;
#669 = DIRECTION ( 'NONE',  ( 1.000000000000000000, 0.000000000000000000, 0.000000000000000000 ) ) ;
#670 = CIRCLE ( 'NONE', #294, 1.600000000000001643 ) ;
#671 = EDGE_CURVE ( 'NONE', #603, #200, #167, .T. ) ;
#672 = AXIS2_PLACEMENT_3D ( 'NONE', #298, #171, #662 ) ;
#673 = EDGE_LOOP ( 'NONE', ( #231, #304 ) ) ;
#674 = LINE ( 'NONE', #456, #710 ) ;
#675 = CARTESIAN_POINT ( 'NONE',  ( 3.000000000000000000, -15.00000000000000000, -7.500000000000000000 ) ) ;
#676 = VERTEX_POINT ( 'NONE', #568 ) ;
#677 = DIRECTION ( 'NONE',  ( -0.000000000000000000, -1.000000000000000000, -0.000000000000000000 ) ) ;
#678 = CARTESIAN_POINT ( 'NONE',  ( 2.999999999999998224, 2.499999999999999112, 7.500000000000000000 ) ) ;
#679 = DIRECTION ( 'NONE',  ( 1.000000000000000000, 4.818676322157798854E-17, -0.000000000000000000 ) ) ;
#680 = CARTESIAN_POINT ( 'NONE',  ( -3.000000000000000000, 0.000000000000000000, -3.499999999999999556 ) ) ;
#681 = FACE_OUTER_BOUND ( 'NONE', #765, .T. ) ;
#682 = ORIENTED_EDGE ( 'NONE', *, *, #201, .F. ) ;
#683 = MECHANICAL_DESIGN_GEOMETRIC_PRESENTATION_REPRESENTATION (  '', ( #239 ), #252 ) ;
#684 = ORIENTED_EDGE ( 'NONE', *, *, #342, .T. ) ;
#685 = VECTOR ( 'NONE', #140, 1000.000000000000000 ) ;
#686 = FACE_OUTER_BOUND ( 'NONE', #438, .T. ) ;
#687 = CARTESIAN_POINT ( 'NONE',  ( 0.8000000000000005995, -9.399999999999998579, 3.390898261464533103 ) ) ;
#688 = DIRECTION ( 'NONE',  ( 1.000000000000000000, 4.818676322157798854E-17, -0.000000000000000000 ) ) ;
#689 = DIRECTION ( 'NONE',  ( 0.000000000000000000, 0.000000000000000000, -1.000000000000000000 ) ) ;
#690 = CARTESIAN_POINT ( 'NONE',  ( -3.000000000000000000, -12.50000000000000000, 5.100000000000001421 ) ) ;
#691 = DIRECTION ( 'NONE',  ( 0.000000000000000000, -0.000000000000000000, 1.000000000000000000 ) ) ;
#692 = DIRECTION ( 'NONE',  ( 0.000000000000000000, 0.000000000000000000, 1.000000000000000000 ) ) ;
#693 = FACE_OUTER_BOUND ( 'NONE', #646, .T. ) ;
#694 = ADVANCED_FACE ( 'NONE', ( #686 ), #735, .F. ) ;
#695 = VECTOR ( 'NONE', #612, 1000.000000000000000 ) ;
#696 = AXIS2_PLACEMENT_3D ( 'NONE', #122, #313, #429 ) ;
#697 = DIRECTION ( 'NONE',  ( 1.000000000000000000, 4.818676322157798238E-17, 0.000000000000000000 ) ) ;
#698 = CARTESIAN_POINT ( 'NONE',  ( 0.2600786649909162529, -11.43012153861317337, 5.055006781938609528 ) ) ;
#699 = VERTEX_POINT ( 'NONE', #265 ) ;
#700 = CARTESIAN_POINT ( 'NONE',  ( 0.8000000000000005995, -12.59999999999999787, -3.607576871250683936 ) ) ;
#701 = LINE ( 'NONE', #405, #527 ) ;
#702 = ORIENTED_EDGE ( 'NONE', *, *, #388, .F. ) ;
#703 = APPLICATION_PROTOCOL_DEFINITION ( 'draft international standard', 'automotive_design', 1998, #772 ) ;
#704 = EDGE_CURVE ( 'NONE', #336, #469, #81, .T. ) ;
#705 = CARTESIAN_POINT ( 'NONE',  ( 0.4917425356525824687, -9.942846993792290533, -4.705284105910274128 ) ) ;
#706 = PRESENTATION_STYLE_ASSIGNMENT (( #218 ) ) ;
#707 = ORIENTED_EDGE ( 'NONE', *, *, #388, .T. ) ;
#708 = CLOSED_SHELL ( 'NONE', ( #537, #626, #216, #694, #608, #249, #76, #433, #347, #515, #109, #87, #2, #363, #411, #134, #584, #54, #112, #571 ) ) ;
#709 = DIRECTION ( 'NONE',  ( 0.000000000000000000, 0.000000000000000000, 1.000000000000000000 ) ) ;
#710 = VECTOR ( 'NONE', #396, 1000.000000000000000 ) ;
#711 = ORIENTED_EDGE ( 'NONE', *, *, #342, .F. ) ;
#712 = DIRECTION ( 'NONE',  ( 0.000000000000000000, 0.000000000000000000, -1.000000000000000000 ) ) ;
#713 = DIRECTION ( 'NONE',  ( 0.000000000000000000, 0.000000000000000000, -1.000000000000000000 ) ) ;
#714 = ORIENTED_EDGE ( 'NONE', *, *, #428, .T. ) ;
#715 = DIRECTION ( 'NONE',  ( 0.000000000000000000, 1.000000000000000000, 0.000000000000000000 ) ) ;
#716 = CARTESIAN_POINT ( 'NONE',  ( 0.6706767234557429180, -12.39081480131284252, -2.681464864975260376 ) ) ;
#717 = B_SPLINE_CURVE_WITH_KNOTS ( 'NONE', 3,
 ( #156, #284, #224, #597, #648, #534, #641, #705, #41, #217, #289, #50, #759, #763, #412, #467, #44, #766, #532, #292, #162, #47, #769, #637, #700, #352 ),
 .UNSPECIFIED., .F., .F.,
 ( 4, 2, 2, 2, 2, 2, 2, 2, 2, 2, 2, 2, 4 ),
 ( 0.000000000000000000, 0.0003221249032728485209, 0.0006442498065456957407, 0.001288499613091394734, 0.001610624516364243201, 0.001932749419637091884, 0.002576999226182784264, 0.003221249032728476860, 0.003543373936001323592, 0.003865498839274169891, 0.004509748645819862053, 0.004831873549092709219, 0.005153998452365554650 ),
 .UNSPECIFIED. ) ;
#718 = ORIENTED_EDGE ( 'NONE', *, *, #399, .T. ) ;
#719 = EDGE_CURVE ( 'NONE', #603, #667, #84, .T. ) ;
#720 = CARTESIAN_POINT ( 'NONE',  ( -7.000000000000000000, 2.499999999999999112, 7.500000000000000000 ) ) ;
#721 = CARTESIAN_POINT ( 'NONE',  ( 0.6007642724083587238, -12.27242620489900204, -2.508790250582434656 ) ) ;
#722 = AXIS2_PLACEMENT_3D ( 'NONE', #183, #66, #715 ) ;
#723 = VERTEX_POINT ( 'NONE', #150 ) ;
#724 = CARTESIAN_POINT ( 'NONE',  ( 0.000000000000000000, -15.00000000000000000, 7.500000000000000000 ) ) ;
#725 = CARTESIAN_POINT ( 'NONE',  ( -7.000000000000000000, 2.499999999999999112, -7.500000000000000000 ) ) ;
#726 = ORIENTED_EDGE ( 'NONE', *, *, #33, .T. ) ;
#727 = DIRECTION ( 'NONE',  ( 0.000000000000000000, 0.000000000000000000, 1.000000000000000000 ) ) ;
#728 = EDGE_CURVE ( 'NONE', #497, #559, #516, .T. ) ;
#729 = CARTESIAN_POINT ( 'NONE',  ( -3.000000000000000000, -12.50000000000000000, -3.499999999999999556 ) ) ;
#730 = VERTEX_POINT ( 'NONE', #18 ) ;
#731 = DIRECTION ( 'NONE',  ( -0.000000000000000000, -0.000000000000000000, -1.000000000000000000 ) ) ;
#732 = CARTESIAN_POINT ( 'NONE',  ( -3.000000000000000000, 0.000000000000000000, 5.100000000000002309 ) ) ;
#733 = VECTOR ( 'NONE', #736, 1000.000000000000000 ) ;
#734 = VERTEX_POINT ( 'NONE', #146 ) ;
#735 = CYLINDRICAL_SURFACE ( 'NONE', #376, 1.600000000000001643 ) ;
#736 = DIRECTION ( 'NONE',  ( -0.000000000000000000, -1.000000000000000000, -0.000000000000000000 ) ) ;
#737 = DIRECTION ( 'NONE',  ( -0.000000000000000000, -0.000000000000000000, -1.000000000000000000 ) ) ;
#738 = LINE ( 'NONE', #202, #685 ) ;
#739 = CARTESIAN_POINT ( 'NONE',  ( 0.000000000000000000, -15.00000000000000000, 7.500000000000000000 ) ) ;
#740 = VERTEX_POINT ( 'NONE', #131 ) ;
#741 = EDGE_CURVE ( 'NONE', #42, #730, #417, .T. ) ;
#742 = ORIENTED_EDGE ( 'NONE', *, *, #480, .F. ) ;
#743 = CARTESIAN_POINT ( 'NONE',  ( -3.000000000000000000, -12.50000000000000000, 1.899999999999997913 ) ) ;
#744 = DIRECTION ( 'NONE',  ( 1.000000000000000000, 4.818676322157798238E-17, 0.000000000000000000 ) ) ;
#745 = FACE_OUTER_BOUND ( 'NONE', #152, .T. ) ;
#746 = CIRCLE ( 'NONE', #488, 2.500000000000000444 ) ;
#747 = ORIENTED_EDGE ( 'NONE', *, *, #741, .F. ) ;
#748 = AXIS2_PLACEMENT_3D ( 'NONE', #440, #88, #27 ) ;
#749 = CARTESIAN_POINT ( 'NONE',  ( 0.000000000000000000, 0.000000000000000000, 7.500000000000000000 ) ) ;
#750 = CARTESIAN_POINT ( 'NONE',  ( 2.999999999999999112, -9.399999999999998579, 3.499999999999999556 ) ) ;
#751 = DIRECTION ( 'NONE',  ( 0.000000000000000000, 0.000000000000000000, -1.000000000000000000 ) ) ;
#752 = EDGE_CURVE ( 'NONE', #410, #157, #256, .T. ) ;
#753 = CARTESIAN_POINT ( 'NONE',  ( -7.000000000000000000, 2.499999999999999112, -7.500000000000000000 ) ) ;
#754 = CARTESIAN_POINT ( 'NONE',  ( 0.000000000000000000, 0.000000000000000000, 7.500000000000000000 ) ) ;
#755 = ORIENTED_EDGE ( 'NONE', *, *, #505, .F. ) ;
#756 = DIRECTION ( 'NONE',  ( -0.000000000000000000, -0.000000000000000000, -1.000000000000000000 ) ) ;
#757 =( NAMED_UNIT ( * ) SI_UNIT ( $, .STERADIAN. ) SOLID_ANGLE_UNIT ( ) );
#758 = VECTOR ( 'NONE', #135, 1000.000000000000000 ) ;
#759 = CARTESIAN_POINT ( 'NONE',  ( 0.2211028641616549217, -10.78164941686953071, -5.099801191338126927 ) ) ;
#760 = CARTESIAN_POINT ( 'NONE',  ( 0.2303124956921137612, -10.78383264289812793, 5.088913625504165594 ) ) ;
#761 = ORIENTED_EDGE ( 'NONE', *, *, #20, .T. ) ;
#762 = EDGE_CURVE ( 'NONE', #559, #382, #572, .T. ) ;
#763 = CARTESIAN_POINT ( 'NONE',  ( 0.2207727905429114068, -11.21542719269698374, -5.100197473316027796 ) ) ;
#764 = CARTESIAN_POINT ( 'NONE',  ( 0.4909367919884947140, -12.05550560345247213, 4.706772233954676921 ) ) ;
#765 = EDGE_LOOP ( 'NONE', ( #541, #574, #531, #181, #379, #385 ) ) ;
#766 = CARTESIAN_POINT ( 'NONE',  ( 0.4540017071533327675, -11.97755035665423406, -4.770741271768387470 ) ) ;
#767 = CARTESIAN_POINT ( 'NONE',  ( 0.8000000000000004885, -12.60000000000000142, 3.714910141543143585 ) ) ;
#768 = ORIENTED_EDGE ( 'NONE', *, *, #649, .T. ) ;
#769 = CARTESIAN_POINT ( 'NONE',  ( 0.7655481584505279269, -12.54570598748846066, -3.926945250492335671 ) ) ;
#770 = CARTESIAN_POINT ( 'NONE',  ( 0.3827955365989591519, -10.19136869055831518, 4.884356572840943045 ) ) ;
#771 = EDGE_LOOP ( 'NONE', ( #536, #237, #121, #395, #656, #52 ) ) ;
#772 = APPLICATION_CONTEXT ( 'automotive_design' ) ;
#773 = DIRECTION ( 'NONE',  ( 1.000000000000000000, -0.000000000000000000, -0.000000000000000000 ) ) ;
#774 = EDGE_CURVE ( 'NONE', #567, #251, #577, .T. ) ;
#775 = CARTESIAN_POINT ( 'NONE',  ( 0.7453639506053171271, -9.486444063304984908, -2.970818450001761590 ) ) ;
#776 = ORIENTED_EDGE ( 'NONE', *, *, #373, .T. ) ;
#777 = CARTESIAN_POINT ( 'NONE',  ( -1.700000000000000178, 7.071067811865478170, 3.499999999999999556 ) ) ;
ENDSEC;
END-ISO-10303-21;
