ISO-10303-21;
HEADER;
FILE_DESCRIPTION (( 'STEP AP214' ),
    '1' );
FILE_NAME ('fixing part.STEP',
    '2026-07-20T12:16:32',
    ( '' ),
    ( '' ),
    'SwSTEP 2.0',
    'SolidWorks 2023',
    '' );
FILE_SCHEMA (( 'AUTOMOTIVE_DESIGN' ));
ENDSEC;

DATA;
#1 = CARTESIAN_POINT ( 'NONE',  ( -11.99999999999999822, -4.000000000000000000, -1.899999999999999023 ) ) ;
#2 = EDGE_LOOP ( 'NONE', ( #510, #527, #84, #471 ) ) ;
#3 = EDGE_CURVE ( 'NONE', #45, #340, #149, .T. ) ;
#4 = CARTESIAN_POINT ( 'NONE',  ( -11.00000000000000000, 2.999999999999998668, 3.499999999999999556 ) ) ;
#5 = CARTESIAN_POINT ( 'NONE',  ( 0.000000000000000000, 0.000000000000000000, -7.500000000000000000 ) ) ;
#6 = VECTOR ( 'NONE', #200, 1000.000000000000000 ) ;
#7 = ORIENTED_EDGE ( 'NONE', *, *, #211, .T. ) ;
#8 = LINE ( 'NONE', #1, #509 ) ;
#9 = DIRECTION ( 'NONE',  ( 1.000000000000000000, 1.224646799147353207E-16, -0.000000000000000000 ) ) ;
#10 = ORIENTED_EDGE ( 'NONE', *, *, #498, .F. ) ;
#11 = DIRECTION ( 'NONE',  ( -1.334402673828313093E-16, 1.000000000000000000, 0.000000000000000000 ) ) ;
#12 = CARTESIAN_POINT ( 'NONE',  ( 8.572527594031473190E-16, -7.000000000000000000, -7.500000000000000000 ) ) ;
#13 = ORIENTED_EDGE ( 'NONE', *, *, #490, .T. ) ;
#14 = CARTESIAN_POINT ( 'NONE',  ( 3.000000000000001776, 3.000000000000000444, 7.500000000000000000 ) ) ;
#15 = DIRECTION ( 'NONE',  ( 0.000000000000000000, 0.000000000000000000, -1.000000000000000000 ) ) ;
#16 = VECTOR ( 'NONE', #116, 1000.000000000000000 ) ;
#17 = ADVANCED_BREP_SHAPE_REPRESENTATION ( 'fixing part', ( #295, #173 ), #156 ) ;
#18 = ORIENTED_EDGE ( 'NONE', *, *, #105, .F. ) ;
#19 = AXIS2_PLACEMENT_3D ( 'NONE', #262, #355, #47 ) ;
#20 = CARTESIAN_POINT ( 'NONE',  ( 3.000000000000001776, 3.000000000000000444, 7.500000000000000000 ) ) ;
#21 = ORIENTED_EDGE ( 'NONE', *, *, #434, .T. ) ;
#22 = CARTESIAN_POINT ( 'NONE',  ( 0.000000000000000000, 0.000000000000000000, -7.500000000000000000 ) ) ;
#23 = VERTEX_POINT ( 'NONE', #111 ) ;
#24 = EDGE_CURVE ( 'NONE', #359, #119, #171, .T. ) ;
#25 = DIRECTION ( 'NONE',  ( -1.000000000000000000, -1.224646799147353207E-16, 0.000000000000000000 ) ) ;
#26 = EDGE_LOOP ( 'NONE', ( #28, #128, #432, #532, #161, #549 ) ) ;
#27 = CARTESIAN_POINT ( 'NONE',  ( -11.99999999999999822, -4.000000000000000000, 3.499999999999999556 ) ) ;
#28 = ORIENTED_EDGE ( 'NONE', *, *, #473, .T. ) ;
#29 = DIRECTION ( 'NONE',  ( 1.000000000000000000, 0.000000000000000000, 0.000000000000000000 ) ) ;
#30 = PRODUCT ( 'fixing part', 'fixing part', '', ( #437 ) ) ;
#31 = LINE ( 'NONE', #412, #16 ) ;
#32 = DIRECTION ( 'NONE',  ( -1.334402673828313093E-16, 1.000000000000000000, -0.000000000000000000 ) ) ;
#33 = EDGE_CURVE ( 'NONE', #529, #207, #326, .T. ) ;
#34 = CLOSED_SHELL ( 'NONE', ( #189, #153, #377, #126, #513, #297, #50, #142, #335, #457, #164, #478, #238, #112, #95, #178 ) ) ;
#35 = CIRCLE ( 'NONE', #399, 1.600000000000002531 ) ;
#36 = CARTESIAN_POINT ( 'NONE',  ( 0.000000000000000000, 0.000000000000000000, 7.500000000000000000 ) ) ;
#37 = DIRECTION ( 'NONE',  ( 1.000000000000000000, -0.000000000000000000, -0.000000000000000000 ) ) ;
#38 = ORIENTED_EDGE ( 'NONE', *, *, #24, .T. ) ;
#39 = EDGE_CURVE ( 'NONE', #106, #302, #431, .T. ) ;
#40 = ORIENTED_EDGE ( 'NONE', *, *, #24, .F. ) ;
#41 = AXIS2_PLACEMENT_3D ( 'NONE', #60, #213, #300 ) ;
#42 = PRODUCT_DEFINITION_SHAPE ( 'NONE', 'NONE',  #268 ) ;
#43 = CARTESIAN_POINT ( 'NONE',  ( -15.00000000000000000, 2.999999999999998224, 7.500000000000000000 ) ) ;
#44 = DIRECTION ( 'NONE',  ( -0.000000000000000000, 0.000000000000000000, 1.000000000000000000 ) ) ;
#45 = VERTEX_POINT ( 'NONE', #5 ) ;
#46 = EDGE_CURVE ( 'NONE', #23, #144, #130, .T. ) ;
#47 = DIRECTION ( 'NONE',  ( 0.000000000000000000, 0.000000000000000000, -1.000000000000000000 ) ) ;
#48 = DIRECTION ( 'NONE',  ( 1.000000000000000000, 1.224646799147353207E-16, -0.000000000000000000 ) ) ;
#49 = ORIENTED_EDGE ( 'NONE', *, *, #182, .F. ) ;
#50 = ADVANCED_FACE ( 'NONE', ( #89, #255, #512 ), #516, .F. ) ;
#51 = DIRECTION ( 'NONE',  ( -1.224646799147353207E-16, 1.000000000000000000, 0.000000000000000000 ) ) ;
#52 = FACE_OUTER_BOUND ( 'NONE', #175, .T. ) ;
#53 = EDGE_LOOP ( 'NONE', ( #448, #316 ) ) ;
#54 = PLANE ( 'NONE',  #372 ) ;
#55 = FACE_BOUND ( 'NONE', #458, .T. ) ;
#56 = ORIENTED_EDGE ( 'NONE', *, *, #409, .F. ) ;
#57 = LINE ( 'NONE', #381, #287 ) ;
#58 = LINE ( 'NONE', #220, #493 ) ;
#59 = ORIENTED_EDGE ( 'NONE', *, *, #324, .F. ) ;
#60 = CARTESIAN_POINT ( 'NONE',  ( 0.000000000000000000, -4.000000000000000000, -3.499999999999999556 ) ) ;
#61 = VECTOR ( 'NONE', #296, 1000.000000000000000 ) ;
#62 = ORIENTED_EDGE ( 'NONE', *, *, #434, .F. ) ;
#63 = DIRECTION ( 'NONE',  ( 1.000000000000000000, -0.000000000000000000, -0.000000000000000000 ) ) ;
#64 = ORIENTED_EDGE ( 'NONE', *, *, #450, .T. ) ;
#65 =( NAMED_UNIT ( * ) PLANE_ANGLE_UNIT ( ) SI_UNIT ( $, .RADIAN. ) );
#66 = CYLINDRICAL_SURFACE ( 'NONE', #419, 1.600000000000002531 ) ;
#67 = ORIENTED_EDGE ( 'NONE', *, *, #409, .T. ) ;
#68 = DIRECTION ( 'NONE',  ( 1.000000000000000000, 1.224646799147353207E-16, -0.000000000000000000 ) ) ;
#69 = EDGE_LOOP ( 'NONE', ( #191, #410, #78, #87, #228, #276 ) ) ;
#70 = AXIS2_PLACEMENT_3D ( 'NONE', #77, #203, #453 ) ;
#71 = VECTOR ( 'NONE', #139, 1000.000000000000000 ) ;
#72 = CARTESIAN_POINT ( 'NONE',  ( 0.000000000000000000, 0.000000000000000000, 7.500000000000000000 ) ) ;
#73 = DIRECTION ( 'NONE',  ( 1.000000000000000000, 0.000000000000000000, 0.000000000000000000 ) ) ;
#74 = DIRECTION ( 'NONE',  ( -1.334402673828313093E-16, 1.000000000000000000, -0.000000000000000000 ) ) ;
#75 = VERTEX_POINT ( 'NONE', #392 ) ;
#76 = VECTOR ( 'NONE', #109, 1000.000000000000000 ) ;
#77 = CARTESIAN_POINT ( 'NONE',  ( -11.00000000000000000, -1.734723475976807094E-15, -3.499999999999999556 ) ) ;
#78 = ORIENTED_EDGE ( 'NONE', *, *, #446, .F. ) ;
#79 = CARTESIAN_POINT ( 'NONE',  ( 8.572527594031473190E-16, -7.000000000000000000, 7.500000000000000000 ) ) ;
#80 = EDGE_CURVE ( 'NONE', #340, #75, #427, .T. ) ;
#81 = CARTESIAN_POINT ( 'NONE',  ( 3.000000000000001776, 3.000000000000000444, 7.500000000000000000 ) ) ;
#82 = VECTOR ( 'NONE', #48, 1000.000000000000000 ) ;
#83 = AXIS2_PLACEMENT_3D ( 'NONE', #391, #129, #91 ) ;
#84 = ORIENTED_EDGE ( 'NONE', *, *, #160, .F. ) ;
#85 = DIRECTION ( 'NONE',  ( -1.000000000000000000, 0.000000000000000000, 0.000000000000000000 ) ) ;
#86 = DIRECTION ( 'NONE',  ( 1.000000000000000000, 1.204669080539449344E-16, 0.000000000000000000 ) ) ;
#87 = ORIENTED_EDGE ( 'NONE', *, *, #344, .F. ) ;
#88 = DIRECTION ( 'NONE',  ( -1.000000000000000000, -1.224646799147353207E-16, 0.000000000000000000 ) ) ;
#89 = FACE_BOUND ( 'NONE', #166, .T. ) ;
#90 = ORIENTED_EDGE ( 'NONE', *, *, #146, .F. ) ;
#91 = DIRECTION ( 'NONE',  ( 0.000000000000000000, 0.000000000000000000, -1.000000000000000000 ) ) ;
#92 = AXIS2_PLACEMENT_3D ( 'NONE', #72, #452, #280 ) ;
#93 = CARTESIAN_POINT ( 'NONE',  ( 3.000000000000000888, -7.000000000000000000, 7.500000000000000000 ) ) ;
#94 = EDGE_LOOP ( 'NONE', ( #7, #397, #10, #250 ) ) ;
#95 = ADVANCED_FACE ( 'NONE', ( #217 ), #470, .F. ) ;
#96 = DIRECTION ( 'NONE',  ( 1.000000000000000000, 1.224646799147353207E-16, -0.000000000000000000 ) ) ;
#97 = FACE_OUTER_BOUND ( 'NONE', #261, .T. ) ;
#98 = ORIENTED_EDGE ( 'NONE', *, *, #39, .F. ) ;
#99 = CARTESIAN_POINT ( 'NONE',  ( 0.000000000000000000, 0.000000000000000000, 7.500000000000000000 ) ) ;
#100 = CARTESIAN_POINT ( 'NONE',  ( -9.399999999999995026, -12.00000000000000000, -3.499999999999999556 ) ) ;
#101 = ORIENTED_EDGE ( 'NONE', *, *, #46, .T. ) ;
#102 =( LENGTH_UNIT ( ) NAMED_UNIT ( * ) SI_UNIT ( .MILLI., .METRE. ) );
#103 = CARTESIAN_POINT ( 'NONE',  ( 0.000000000000000000, -4.000000000000000000, -3.499999999999999556 ) ) ;
#104 = AXIS2_PLACEMENT_3D ( 'NONE', #20, #304, #86 ) ;
#105 = EDGE_CURVE ( 'NONE', #425, #141, #185, .T. ) ;
#106 = VERTEX_POINT ( 'NONE', #385 ) ;
#107 = CIRCLE ( 'NONE', #364, 1.600000000000000755 ) ;
#108 = SURFACE_STYLE_FILL_AREA ( #528 ) ;
#109 = DIRECTION ( 'NONE',  ( 1.224646799147353207E-16, -1.000000000000000000, 0.000000000000000000 ) ) ;
#110 = CYLINDRICAL_SURFACE ( 'NONE', #413, 1.599999999999999867 ) ;
#111 = CARTESIAN_POINT ( 'NONE',  ( -9.399999999999998579, -1.538779988113230423E-15, 3.499999999999999556 ) ) ;
#112 = ADVANCED_FACE ( 'NONE', ( #52 ), #133, .F. ) ;
#113 = DIRECTION ( 'NONE',  ( -1.224646799147353207E-16, 1.000000000000000000, 0.000000000000000000 ) ) ;
#114 = CIRCLE ( 'NONE', #484, 1.600000000000000755 ) ;
#115 = VECTOR ( 'NONE', #460, 1000.000000000000000 ) ;
#116 = DIRECTION ( 'NONE',  ( 1.000000000000000000, 0.000000000000000000, 0.000000000000000000 ) ) ;
#117 = DIRECTION ( 'NONE',  ( -1.000000000000000000, -1.204669080539449344E-16, 0.000000000000000000 ) ) ;
#118 = LINE ( 'NONE', #159, #71 ) ;
#119 = VERTEX_POINT ( 'NONE', #356 ) ;
#120 = STYLED_ITEM ( 'NONE', ( #229 ), #295 ) ;
#121 = CARTESIAN_POINT ( 'NONE',  ( 3.000000000000001332, -4.000000000000000000, 5.099999999999999645 ) ) ;
#122 = FACE_OUTER_BOUND ( 'NONE', #134, .T. ) ;
#123 = ORIENTED_EDGE ( 'NONE', *, *, #33, .T. ) ;
#124 = FACE_OUTER_BOUND ( 'NONE', #2, .T. ) ;
#125 = PRODUCT_DEFINITION_FORMATION_WITH_SPECIFIED_SOURCE ( 'ANY', '', #30, .NOT_KNOWN. ) ;
#126 = ADVANCED_FACE ( 'NONE', ( #97 ), #140, .F. ) ;
#127 = CARTESIAN_POINT ( 'NONE',  ( -9.399999999999995026, -12.00000000000000000, 3.499999999999999556 ) ) ;
#128 = ORIENTED_EDGE ( 'NONE', *, *, #216, .T. ) ;
#129 = DIRECTION ( 'NONE',  ( 1.000000000000000000, 0.000000000000000000, 0.000000000000000000 ) ) ;
#130 = LINE ( 'NONE', #127, #61 ) ;
#131 = ORIENTED_EDGE ( 'NONE', *, *, #248, .T. ) ;
#132 = DIRECTION ( 'NONE',  ( 1.000000000000000000, 0.000000000000000000, 0.000000000000000000 ) ) ;
#133 = CYLINDRICAL_SURFACE ( 'NONE', #500, 1.600000000000002531 ) ;
#134 = EDGE_LOOP ( 'NONE', ( #517, #265, #349, #514 ) ) ;
#135 = CARTESIAN_POINT ( 'NONE',  ( -15.00000000000000000, 2.999999999999998224, -7.500000000000000000 ) ) ;
#136 = VECTOR ( 'NONE', #117, 1000.000000000000000 ) ;
#137 = CARTESIAN_POINT ( 'NONE',  ( 0.000000000000000000, -4.000000000000000000, 1.899999999999999689 ) ) ;
#138 = ORIENTED_EDGE ( 'NONE', *, *, #263, .F. ) ;
#139 = DIRECTION ( 'NONE',  ( 1.000000000000000000, -0.000000000000000000, -0.000000000000000000 ) ) ;
#140 = CYLINDRICAL_SURFACE ( 'NONE', #204, 1.600000000000002531 ) ;
#141 = VERTEX_POINT ( 'NONE', #137 ) ;
#142 = ADVANCED_FACE ( 'NONE', ( #55, #400, #313 ), #264, .F. ) ;
#143 = DIRECTION ( 'NONE',  ( -1.000000000000000000, 0.000000000000000000, 0.000000000000000000 ) ) ;
#144 = VERTEX_POINT ( 'NONE', #435 ) ;
#145 = DIRECTION ( 'NONE',  ( 0.000000000000000000, 0.000000000000000000, -1.000000000000000000 ) ) ;
#146 = EDGE_CURVE ( 'NONE', #218, #387, #58, .T. ) ;
#147 = AXIS2_PLACEMENT_3D ( 'NONE', #93, #475, #438 ) ;
#148 = AXIS2_PLACEMENT_3D ( 'NONE', #329, #74, #201 ) ;
#149 = LINE ( 'NONE', #320, #76 ) ;
#150 = LINE ( 'NONE', #22, #222 ) ;
#151 = EDGE_LOOP ( 'NONE', ( #214, #138, #183, #67 ) ) ;
#152 = CARTESIAN_POINT ( 'NONE',  ( -10.99999999999999822, -12.00000000000000000, 3.499999999999999556 ) ) ;
#153 = ADVANCED_FACE ( 'NONE', ( #396 ), #507, .F. ) ;
#154 = FACE_OUTER_BOUND ( 'NONE', #151, .T. ) ;
#155 = VECTOR ( 'NONE', #447, 1000.000000000000000 ) ;
#156 =( GEOMETRIC_REPRESENTATION_CONTEXT ( 3 ) GLOBAL_UNCERTAINTY_ASSIGNED_CONTEXT ( ( #411 ) ) GLOBAL_UNIT_ASSIGNED_CONTEXT ( ( #102, #65, #270 ) ) REPRESENTATION_CONTEXT ( 'NONE', 'WORKASPACE' ) );
#157 = DIRECTION ( 'NONE',  ( -1.334402673828313093E-16, 1.000000000000000000, -0.000000000000000000 ) ) ;
#158 = CARTESIAN_POINT ( 'NONE',  ( -12.59999999999999964, -12.00000000000000000, 3.499999999999999556 ) ) ;
#159 = CARTESIAN_POINT ( 'NONE',  ( -11.99999999999999822, -4.000000000000000000, -5.100000000000000533 ) ) ;
#160 = EDGE_CURVE ( 'NONE', #387, #547, #424, .T. ) ;
#161 = ORIENTED_EDGE ( 'NONE', *, *, #146, .T. ) ;
#162 = AXIS2_PLACEMENT_3D ( 'NONE', #103, #68, #444 ) ;
#163 = LINE ( 'NONE', #379, #136 ) ;
#164 = ADVANCED_FACE ( 'NONE', ( #272 ), #488, .T. ) ;
#165 = CARTESIAN_POINT ( 'NONE',  ( 3.000000000000000888, -7.000000000000000000, 7.500000000000000000 ) ) ;
#166 = EDGE_LOOP ( 'NONE', ( #56, #169 ) ) ;
#167 = APPLICATION_CONTEXT ( 'automotive_design' ) ;
#168 = CARTESIAN_POINT ( 'NONE',  ( 3.000000000000001776, 3.000000000000000444, 7.500000000000000000 ) ) ;
#169 = ORIENTED_EDGE ( 'NONE', *, *, #534, .F. ) ;
#170 = CIRCLE ( 'NONE', #162, 1.600000000000000755 ) ;
#171 = CIRCLE ( 'NONE', #41, 1.600000000000000755 ) ;
#172 = FACE_BOUND ( 'NONE', #499, .T. ) ;
#173 = AXIS2_PLACEMENT_3D ( 'NONE', #487, #266, #29 ) ;
#174 = DIRECTION ( 'NONE',  ( 1.000000000000000000, 0.000000000000000000, 0.000000000000000000 ) ) ;
#175 = EDGE_LOOP ( 'NONE', ( #98, #404, #226, #314 ) ) ;
#176 = DIRECTION ( 'NONE',  ( -1.224646799147353207E-16, 1.000000000000000000, 0.000000000000000000 ) ) ;
#177 = CARTESIAN_POINT ( 'NONE',  ( -10.99999999999999822, -12.00000000000000000, 3.499999999999999556 ) ) ;
#178 = ADVANCED_FACE ( 'NONE', ( #154 ), #367, .F. ) ;
#179 = VERTEX_POINT ( 'NONE', #406 ) ;
#180 = CARTESIAN_POINT ( 'NONE',  ( -11.00000000000000000, -1.734723475976807094E-15, -3.499999999999999556 ) ) ;
#181 = CARTESIAN_POINT ( 'NONE',  ( -11.99999999999999822, -4.000000000000000000, -3.499999999999999556 ) ) ;
#182 = EDGE_CURVE ( 'NONE', #234, #23, #332, .T. ) ;
#183 = ORIENTED_EDGE ( 'NONE', *, *, #301, .T. ) ;
#184 = LINE ( 'NONE', #99, #522 ) ;
#185 = CIRCLE ( 'NONE', #341, 1.599999999999999867 ) ;
#186 = CARTESIAN_POINT ( 'NONE',  ( 0.000000000000000000, 0.000000000000000000, 7.500000000000000000 ) ) ;
#187 = VECTOR ( 'NONE', #523, 1000.000000000000000 ) ;
#188 = ORIENTED_EDGE ( 'NONE', *, *, #402, .T. ) ;
#189 = ADVANCED_FACE ( 'NONE', ( #319 ), #110, .F. ) ;
#190 = FACE_OUTER_BOUND ( 'NONE', #284, .T. ) ;
#191 = ORIENTED_EDGE ( 'NONE', *, *, #3, .F. ) ;
#192 = PLANE ( 'NONE',  #271 ) ;
#193 = VERTEX_POINT ( 'NONE', #533 ) ;
#194 = CARTESIAN_POINT ( 'NONE',  ( 8.572527594031473190E-16, -7.000000000000000000, 7.500000000000000000 ) ) ;
#195 = EDGE_LOOP ( 'NONE', ( #202, #40, #366, #310 ) ) ;
#196 = LINE ( 'NONE', #526, #155 ) ;
#197 = DIRECTION ( 'NONE',  ( -1.334402673828313093E-16, 1.000000000000000000, -0.000000000000000000 ) ) ;
#198 = DIRECTION ( 'NONE',  ( -1.000000000000000000, -1.224646799147353207E-16, 0.000000000000000000 ) ) ;
#199 = EDGE_CURVE ( 'NONE', #387, #439, #237, .T. ) ;
#200 = DIRECTION ( 'NONE',  ( -0.000000000000000000, -0.000000000000000000, -1.000000000000000000 ) ) ;
#201 = DIRECTION ( 'NONE',  ( -1.000000000000000000, 0.000000000000000000, 0.000000000000000000 ) ) ;
#202 = ORIENTED_EDGE ( 'NONE', *, *, #450, .F. ) ;
#203 = DIRECTION ( 'NONE',  ( -1.224646799147353207E-16, 1.000000000000000000, 0.000000000000000000 ) ) ;
#204 = AXIS2_PLACEMENT_3D ( 'NONE', #177, #348, #519 ) ;
#205 = CARTESIAN_POINT ( 'NONE',  ( -11.99999999999999822, -4.000000000000000000, 1.899999999999999689 ) ) ;
#206 = DIRECTION ( 'NONE',  ( -1.334402673828313093E-16, 1.000000000000000000, 0.000000000000000000 ) ) ;
#207 = VERTEX_POINT ( 'NONE', #325 ) ;
#208 = CARTESIAN_POINT ( 'NONE',  ( -12.60000000000000142, -1.930666963840383568E-15, -3.499999999999999556 ) ) ;
#209 = CARTESIAN_POINT ( 'NONE',  ( -11.99999999999999822, -4.000000000000000000, -3.499999999999999556 ) ) ;
#210 = ORIENTED_EDGE ( 'NONE', *, *, #496, .F. ) ;
#211 = EDGE_CURVE ( 'NONE', #75, #390, #196, .T. ) ;
#212 = DIRECTION ( 'NONE',  ( 8.673617379884035472E-17, 1.000000000000000000, 0.000000000000000000 ) ) ;
#213 = DIRECTION ( 'NONE',  ( 1.000000000000000000, 1.224646799147353207E-16, -0.000000000000000000 ) ) ;
#214 = ORIENTED_EDGE ( 'NONE', *, *, #257, .F. ) ;
#215 = CARTESIAN_POINT ( 'NONE',  ( 0.000000000000000000, -4.000000000000000000, 5.099999999999999645 ) ) ;
#216 = EDGE_CURVE ( 'NONE', #346, #193, #31, .T. ) ;
#217 = FACE_OUTER_BOUND ( 'NONE', #195, .T. ) ;
#218 = VERTEX_POINT ( 'NONE', #365 ) ;
#219 = CARTESIAN_POINT ( 'NONE',  ( -11.00000000000000000, 2.999999999999998668, 3.499999999999999556 ) ) ;
#220 = CARTESIAN_POINT ( 'NONE',  ( -15.00000000000000000, 2.999999999999998224, 7.500000000000000000 ) ) ;
#221 = ORIENTED_EDGE ( 'NONE', *, *, #328, .T. ) ;
#222 = VECTOR ( 'NONE', #235, 1000.000000000000000 ) ;
#223 = APPLICATION_CONTEXT ( 'automotive_design' ) ;
#224 = CARTESIAN_POINT ( 'NONE',  ( -10.99999999999999822, -12.00000000000000000, -3.499999999999999556 ) ) ;
#225 = CIRCLE ( 'NONE', #546, 1.600000000000000755 ) ;
#226 = ORIENTED_EDGE ( 'NONE', *, *, #360, .T. ) ;
#227 = CARTESIAN_POINT ( 'NONE',  ( -12.59999999999999964, -1.930666963840383568E-15, 3.499999999999999556 ) ) ;
#228 = ORIENTED_EDGE ( 'NONE', *, *, #211, .F. ) ;
#229 = PRESENTATION_STYLE_ASSIGNMENT (( #321 ) ) ;
#230 = ORIENTED_EDGE ( 'NONE', *, *, #393, .T. ) ;
#231 = DIRECTION ( 'NONE',  ( 1.000000000000000000, -0.000000000000000000, -0.000000000000000000 ) ) ;
#232 = AXIS2_PLACEMENT_3D ( 'NONE', #368, #491, #113 ) ;
#233 = AXIS2_PLACEMENT_3D ( 'NONE', #426, #44, #132 ) ;
#234 = VERTEX_POINT ( 'NONE', #227 ) ;
#235 = DIRECTION ( 'NONE',  ( 1.000000000000000000, 1.224646799147353207E-16, -0.000000000000000000 ) ) ;
#236 = EDGE_CURVE ( 'NONE', #207, #529, #114, .T. ) ;
#237 = LINE ( 'NONE', #323, #520 ) ;
#238 = ADVANCED_FACE ( 'NONE', ( #190 ), #66, .F. ) ;
#239 = DIRECTION ( 'NONE',  ( -0.000000000000000000, -0.000000000000000000, -1.000000000000000000 ) ) ;
#240 = COLOUR_RGB ( '',0.7921568627450980005, 0.8196078431372548767, 0.9333333333333333481 ) ;
#241 = CIRCLE ( 'NONE', #420, 1.600000000000002531 ) ;
#242 = VERTEX_POINT ( 'NONE', #315 ) ;
#243 = EDGE_CURVE ( 'NONE', #119, #359, #170, .T. ) ;
#244 = FACE_OUTER_BOUND ( 'NONE', #445, .T. ) ;
#245 = DIRECTION ( 'NONE',  ( 0.000000000000000000, 1.000000000000000000, 0.000000000000000000 ) ) ;
#246 = EDGE_LOOP ( 'NONE', ( #18, #256, #456, #357 ) ) ;
#247 = CARTESIAN_POINT ( 'NONE',  ( -11.00000000000000000, -1.734723475976807094E-15, 3.499999999999999556 ) ) ;
#248 = EDGE_CURVE ( 'NONE', #346, #340, #403, .T. ) ;
#249 = LINE ( 'NONE', #497, #449 ) ;
#250 = ORIENTED_EDGE ( 'NONE', *, *, #380, .T. ) ;
#251 = CARTESIAN_POINT ( 'NONE',  ( -12.59999999999999964, 2.999999999999998668, 3.499999999999999556 ) ) ;
#252 = DIRECTION ( 'NONE',  ( -1.224646799147353207E-16, 1.000000000000000000, 0.000000000000000000 ) ) ;
#253 = EDGE_LOOP ( 'NONE', ( #373, #401 ) ) ;
#254 = DIRECTION ( 'NONE',  ( 1.224646799147353207E-16, -1.000000000000000000, 0.000000000000000000 ) ) ;
#255 = FACE_BOUND ( 'NONE', #253, .T. ) ;
#256 = ORIENTED_EDGE ( 'NONE', *, *, #257, .T. ) ;
#257 = EDGE_CURVE ( 'NONE', #425, #333, #408, .T. ) ;
#258 = CIRCLE ( 'NONE', #318, 1.600000000000002531 ) ;
#259 = DIRECTION ( 'NONE',  ( -1.000000000000000000, -1.224646799147351975E-16, 0.000000000000000000 ) ) ;
#260 = DIRECTION ( 'NONE',  ( 1.000000000000000000, -0.000000000000000000, -0.000000000000000000 ) ) ;
#261 = EDGE_LOOP ( 'NONE', ( #436, #101, #21, #489 ) ) ;
#262 = CARTESIAN_POINT ( 'NONE',  ( 3.000000000000001332, -4.000000000000000000, 3.499999999999999556 ) ) ;
#263 = EDGE_CURVE ( 'NONE', #141, #425, #461, .T. ) ;
#264 = PLANE ( 'NONE',  #104 ) ;
#265 = ORIENTED_EDGE ( 'NONE', *, *, #39, .T. ) ;
#266 = DIRECTION ( 'NONE',  ( 0.000000000000000000, 0.000000000000000000, 1.000000000000000000 ) ) ;
#267 = CARTESIAN_POINT ( 'NONE',  ( 3.000000000000001332, -4.000000000000000000, -3.499999999999999556 ) ) ;
#268 = PRODUCT_DEFINITION ( 'UNKNOWN', '', #125, #540 ) ;
#269 = ORIENTED_EDGE ( 'NONE', *, *, #446, .T. ) ;
#270 =( NAMED_UNIT ( * ) SI_UNIT ( $, .STERADIAN. ) SOLID_ANGLE_UNIT ( ) );
#271 = AXIS2_PLACEMENT_3D ( 'NONE', #285, #245, #283 ) ;
#272 = FACE_OUTER_BOUND ( 'NONE', #26, .T. ) ;
#273 = CIRCLE ( 'NONE', #83, 1.599999999999999867 ) ;
#274 = ORIENTED_EDGE ( 'NONE', *, *, #243, .T. ) ;
#275 = SURFACE_SIDE_STYLE ('',( #108 ) ) ;
#276 = ORIENTED_EDGE ( 'NONE', *, *, #80, .F. ) ;
#277 = EDGE_CURVE ( 'NONE', #439, #45, #150, .T. ) ;
#278 = CARTESIAN_POINT ( 'NONE',  ( -11.99999999999999822, -4.000000000000000000, 3.499999999999999556 ) ) ;
#279 = EDGE_LOOP ( 'NONE', ( #422, #188 ) ) ;
#280 = DIRECTION ( 'NONE',  ( 1.000000000000000000, 0.000000000000000000, 0.000000000000000000 ) ) ;
#281 = VECTOR ( 'NONE', #32, 1000.000000000000000 ) ;
#282 = DIRECTION ( 'NONE',  ( 0.000000000000000000, 0.000000000000000000, -1.000000000000000000 ) ) ;
#283 = DIRECTION ( 'NONE',  ( 0.000000000000000000, -0.000000000000000000, 1.000000000000000000 ) ) ;
#284 = EDGE_LOOP ( 'NONE', ( #305, #49, #468, #465 ) ) ;
#285 = CARTESIAN_POINT ( 'NONE',  ( 8.572527594031473190E-16, -7.000000000000000000, 7.500000000000000000 ) ) ;
#286 = VECTOR ( 'NONE', #467, 1000.000000000000000 ) ;
#287 = VECTOR ( 'NONE', #212, 1000.000000000000000 ) ;
#288 = DIRECTION ( 'NONE',  ( -0.000000000000000000, -0.000000000000000000, -1.000000000000000000 ) ) ;
#289 = ORIENTED_EDGE ( 'NONE', *, *, #380, .F. ) ;
#290 = LINE ( 'NONE', #165, #307 ) ;
#291 = LINE ( 'NONE', #418, #530 ) ;
#292 = ORIENTED_EDGE ( 'NONE', *, *, #473, .F. ) ;
#293 = AXIS2_PLACEMENT_3D ( 'NONE', #278, #231, #145 ) ;
#294 = CARTESIAN_POINT ( 'NONE',  ( -11.00000000000000000, 2.999999999999998668, -3.499999999999999556 ) ) ;
#295 = MANIFOLD_SOLID_BREP ( 'Cut-Extrude2', #34 ) ;
#296 = DIRECTION ( 'NONE',  ( -1.334402673828313093E-16, 1.000000000000000000, -0.000000000000000000 ) ) ;
#297 = ADVANCED_FACE ( 'NONE', ( #374 ), #192, .F. ) ;
#298 = ORIENTED_EDGE ( 'NONE', *, *, #199, .F. ) ;
#299 = DIRECTION ( 'NONE',  ( -1.334402673828313093E-16, 1.000000000000000000, 0.000000000000000000 ) ) ;
#300 = DIRECTION ( 'NONE',  ( -1.224646799147353207E-16, 1.000000000000000000, 0.000000000000000000 ) ) ;
#301 = EDGE_CURVE ( 'NONE', #141, #242, #538, .T. ) ;
#302 = VERTEX_POINT ( 'NONE', #334 ) ;
#303 = FACE_BOUND ( 'NONE', #279, .T. ) ;
#304 = DIRECTION ( 'NONE',  ( 1.204669080539449344E-16, -1.000000000000000000, 0.000000000000000000 ) ) ;
#305 = ORIENTED_EDGE ( 'NONE', *, *, #46, .F. ) ;
#306 = AXIS2_PLACEMENT_3D ( 'NONE', #181, #260, #464 ) ;
#307 = VECTOR ( 'NONE', #239, 1000.000000000000000 ) ;
#308 = FACE_BOUND ( 'NONE', #53, .T. ) ;
#309 = DIRECTION ( 'NONE',  ( 0.000000000000000000, 0.000000000000000000, -1.000000000000000000 ) ) ;
#310 = ORIENTED_EDGE ( 'NONE', *, *, #236, .T. ) ;
#311 = PRODUCT_RELATED_PRODUCT_CATEGORY ( 'part', '', ( #30 ) ) ;
#312 = CARTESIAN_POINT ( 'NONE',  ( -11.00000000000000000, 2.999999999999998668, -3.499999999999999556 ) ) ;
#313 = FACE_OUTER_BOUND ( 'NONE', #375, .T. ) ;
#314 = ORIENTED_EDGE ( 'NONE', *, *, #496, .T. ) ;
#315 = CARTESIAN_POINT ( 'NONE',  ( 3.000000000000001332, -4.000000000000000000, 1.899999999999999689 ) ) ;
#316 = ORIENTED_EDGE ( 'NONE', *, *, #105, .T. ) ;
#317 = VECTOR ( 'NONE', #37, 1000.000000000000000 ) ;
#318 = AXIS2_PLACEMENT_3D ( 'NONE', #294, #206, #469 ) ;
#319 = FACE_OUTER_BOUND ( 'NONE', #246, .T. ) ;
#320 = CARTESIAN_POINT ( 'NONE',  ( 0.000000000000000000, 0.000000000000000000, -7.500000000000000000 ) ) ;
#321 = SURFACE_STYLE_USAGE ( .BOTH. , #275 ) ;
#322 = EDGE_LOOP ( 'NONE', ( #476, #62 ) ) ;
#323 = CARTESIAN_POINT ( 'NONE',  ( -15.00000000000000000, -1.836970198721029589E-15, 7.500000000000000000 ) ) ;
#324 = EDGE_CURVE ( 'NONE', #218, #462, #291, .T. ) ;
#325 = CARTESIAN_POINT ( 'NONE',  ( 3.000000000000001332, -4.000000000000000000, -5.100000000000000533 ) ) ;
#326 = CIRCLE ( 'NONE', #398, 1.600000000000000755 ) ;
#327 = AXIS2_PLACEMENT_3D ( 'NONE', #4, #11, #433 ) ;
#328 = EDGE_CURVE ( 'NONE', #106, #543, #428, .T. ) ;
#329 = CARTESIAN_POINT ( 'NONE',  ( -10.99999999999999822, -12.00000000000000000, -3.499999999999999556 ) ) ;
#330 = ORIENTED_EDGE ( 'NONE', *, *, #344, .T. ) ;
#331 = DIRECTION ( 'NONE',  ( -1.224646799147353207E-16, 1.000000000000000000, 0.000000000000000000 ) ) ;
#332 = CIRCLE ( 'NONE', #354, 1.600000000000000755 ) ;
#333 = VERTEX_POINT ( 'NONE', #121 ) ;
#334 = CARTESIAN_POINT ( 'NONE',  ( -9.399999999999996803, 2.999999999999998668, -3.499999999999999556 ) ) ;
#335 = ADVANCED_FACE ( 'NONE', ( #244 ), #376, .F. ) ;
#336 = LINE ( 'NONE', #36, #115 ) ;
#337 = ORIENTED_EDGE ( 'NONE', *, *, #383, .T. ) ;
#338 = DIRECTION ( 'NONE',  ( 1.000000000000000000, -0.000000000000000000, -0.000000000000000000 ) ) ;
#339 = DIRECTION ( 'NONE',  ( 0.000000000000000000, -1.000000000000000000, 0.000000000000000000 ) ) ;
#340 = VERTEX_POINT ( 'NONE', #503 ) ;
#341 = AXIS2_PLACEMENT_3D ( 'NONE', #352, #9, #252 ) ;
#342 = VECTOR ( 'NONE', #477, 1000.000000000000000 ) ;
#343 = LINE ( 'NONE', #421, #342 ) ;
#344 = EDGE_CURVE ( 'NONE', #390, #462, #163, .T. ) ;
#345 = DIRECTION ( 'NONE',  ( -1.334402673828313093E-16, 1.000000000000000000, -0.000000000000000000 ) ) ;
#346 = VERTEX_POINT ( 'NONE', #79 ) ;
#347 = CARTESIAN_POINT ( 'NONE',  ( 0.000000000000000000, 0.000000000000000000, 7.500000000000000000 ) ) ;
#348 = DIRECTION ( 'NONE',  ( -1.334402673828313093E-16, 1.000000000000000000, -0.000000000000000000 ) ) ;
#349 = ORIENTED_EDGE ( 'NONE', *, *, #414, .T. ) ;
#350 = PLANE ( 'NONE',  #233 ) ;
#351 = UNCERTAINTY_MEASURE_WITH_UNIT (LENGTH_MEASURE( 1.000000000000000082E-05 ), #370, 'distance_accuracy_value', 'NONE');
#352 = CARTESIAN_POINT ( 'NONE',  ( 0.000000000000000000, -4.000000000000000000, 3.499999999999999556 ) ) ;
#353 = EDGE_LOOP ( 'NONE', ( #38, #274 ) ) ;
#354 = AXIS2_PLACEMENT_3D ( 'NONE', #535, #358, #25 ) ;
#355 = DIRECTION ( 'NONE',  ( 1.000000000000000000, 0.000000000000000000, 0.000000000000000000 ) ) ;
#356 = CARTESIAN_POINT ( 'NONE',  ( 0.000000000000000000, -4.000000000000000000, -1.899999999999999023 ) ) ;
#357 = ORIENTED_EDGE ( 'NONE', *, *, #301, .F. ) ;
#358 = DIRECTION ( 'NONE',  ( -1.224646799147353207E-16, 1.000000000000000000, 0.000000000000000000 ) ) ;
#359 = VERTEX_POINT ( 'NONE', #504 ) ;
#360 = EDGE_CURVE ( 'NONE', #543, #179, #249, .T. ) ;
#361 = FILL_AREA_STYLE_COLOUR ( '', #240 ) ;
#362 = ORIENTED_EDGE ( 'NONE', *, *, #405, .F. ) ;
#363 = VECTOR ( 'NONE', #442, 1000.000000000000000 ) ;
#364 = AXIS2_PLACEMENT_3D ( 'NONE', #247, #331, #198 ) ;
#365 = CARTESIAN_POINT ( 'NONE',  ( -15.00000000000000000, 2.999999999999998224, 7.500000000000000000 ) ) ;
#366 = ORIENTED_EDGE ( 'NONE', *, *, #405, .T. ) ;
#367 = CYLINDRICAL_SURFACE ( 'NONE', #293, 1.599999999999999867 ) ;
#368 = CARTESIAN_POINT ( 'NONE',  ( 0.000000000000000000, -4.000000000000000000, 3.499999999999999556 ) ) ;
#369 = EDGE_CURVE ( 'NONE', #234, #407, #415, .T. ) ;
#370 =( LENGTH_UNIT ( ) NAMED_UNIT ( * ) SI_UNIT ( .MILLI., .METRE. ) );
#371 = VECTOR ( 'NONE', #63, 1000.000000000000000 ) ;
#372 = AXIS2_PLACEMENT_3D ( 'NONE', #430, #96, #176 ) ;
#373 = ORIENTED_EDGE ( 'NONE', *, *, #236, .F. ) ;
#374 = FACE_OUTER_BOUND ( 'NONE', #483, .T. ) ;
#375 = EDGE_LOOP ( 'NONE', ( #330, #59, #480, #230 ) ) ;
#376 = PLANE ( 'NONE',  #378 ) ;
#377 = ADVANCED_FACE ( 'NONE', ( #122 ), #548, .F. ) ;
#378 = AXIS2_PLACEMENT_3D ( 'NONE', #43, #545, #501 ) ;
#379 = CARTESIAN_POINT ( 'NONE',  ( 3.000000000000001776, 3.000000000000000444, -7.500000000000000000 ) ) ;
#380 = EDGE_CURVE ( 'NONE', #193, #75, #290, .T. ) ;
#381 = CARTESIAN_POINT ( 'NONE',  ( 3.000000000000000888, -7.000000000000000000, 7.500000000000000000 ) ) ;
#382 = ORIENTED_EDGE ( 'NONE', *, *, #414, .F. ) ;
#383 = EDGE_CURVE ( 'NONE', #547, #45, #336, .T. ) ;
#384 = DIRECTION ( 'NONE',  ( -1.000000000000000000, 0.000000000000000000, 0.000000000000000000 ) ) ;
#385 = CARTESIAN_POINT ( 'NONE',  ( -9.399999999999996803, -1.538779988113230423E-15, -3.499999999999999556 ) ) ;
#386 = VECTOR ( 'NONE', #524, 1000.000000000000000 ) ;
#387 = VERTEX_POINT ( 'NONE', #539 ) ;
#388 = FACE_OUTER_BOUND ( 'NONE', #443, .T. ) ;
#389 = DIRECTION ( 'NONE',  ( -1.000000000000000000, 0.000000000000000000, 0.000000000000000000 ) ) ;
#390 = VERTEX_POINT ( 'NONE', #459 ) ;
#391 = CARTESIAN_POINT ( 'NONE',  ( 3.000000000000001332, -4.000000000000000000, 3.499999999999999556 ) ) ;
#392 = CARTESIAN_POINT ( 'NONE',  ( 3.000000000000000888, -7.000000000000000000, -7.500000000000000000 ) ) ;
#393 = EDGE_CURVE ( 'NONE', #505, #390, #541, .T. ) ;
#394 = ORIENTED_EDGE ( 'NONE', *, *, #216, .F. ) ;
#395 = FACE_OUTER_BOUND ( 'NONE', #69, .T. ) ;
#396 = FACE_OUTER_BOUND ( 'NONE', #525, .T. ) ;
#397 = ORIENTED_EDGE ( 'NONE', *, *, #393, .F. ) ;
#398 = AXIS2_PLACEMENT_3D ( 'NONE', #267, #174, #309 ) ;
#399 = AXIS2_PLACEMENT_3D ( 'NONE', #180, #51, #259 ) ;
#400 = FACE_BOUND ( 'NONE', #322, .T. ) ;
#401 = ORIENTED_EDGE ( 'NONE', *, *, #33, .F. ) ;
#402 = EDGE_CURVE ( 'NONE', #23, #234, #107, .T. ) ;
#403 = LINE ( 'NONE', #194, #363 ) ;
#404 = ORIENTED_EDGE ( 'NONE', *, *, #490, .F. ) ;
#405 = EDGE_CURVE ( 'NONE', #359, #207, #118, .T. ) ;
#406 = CARTESIAN_POINT ( 'NONE',  ( -12.60000000000000142, 2.999999999999998668, -3.499999999999999556 ) ) ;
#407 = VERTEX_POINT ( 'NONE', #251 ) ;
#408 = LINE ( 'NONE', #531, #371 ) ;
#409 = EDGE_CURVE ( 'NONE', #242, #333, #273, .T. ) ;
#410 = ORIENTED_EDGE ( 'NONE', *, *, #277, .F. ) ;
#411 = UNCERTAINTY_MEASURE_WITH_UNIT (LENGTH_MEASURE( 1.000000000000000082E-05 ), #102, 'distance_accuracy_value', 'NONE');
#412 = CARTESIAN_POINT ( 'NONE',  ( 8.572527594031473190E-16, -7.000000000000000000, 7.500000000000000000 ) ) ;
#413 = AXIS2_PLACEMENT_3D ( 'NONE', #27, #451, #282 ) ;
#414 = EDGE_CURVE ( 'NONE', #302, #179, #241, .T. ) ;
#415 = LINE ( 'NONE', #158, #281 ) ;
#416 =( NAMED_UNIT ( * ) PLANE_ANGLE_UNIT ( ) SI_UNIT ( $, .RADIAN. ) );
#417 = ORIENTED_EDGE ( 'NONE', *, *, #3, .T. ) ;
#418 = CARTESIAN_POINT ( 'NONE',  ( -15.00000000000000000, 2.999999999999998224, 7.500000000000000000 ) ) ;
#419 = AXIS2_PLACEMENT_3D ( 'NONE', #152, #197, #143 ) ;
#420 = AXIS2_PLACEMENT_3D ( 'NONE', #312, #299, #384 ) ;
#421 = CARTESIAN_POINT ( 'NONE',  ( -15.00000000000000000, 2.999999999999998224, -7.500000000000000000 ) ) ;
#422 = ORIENTED_EDGE ( 'NONE', *, *, #182, .T. ) ;
#423 = CARTESIAN_POINT ( 'NONE',  ( 0.000000000000000000, 0.000000000000000000, 7.500000000000000000 ) ) ;
#424 = LINE ( 'NONE', #186, #82 ) ;
#425 = VERTEX_POINT ( 'NONE', #215 ) ;
#426 = CARTESIAN_POINT ( 'NONE',  ( 0.000000000000000000, 0.000000000000000000, -7.500000000000000000 ) ) ;
#427 = LINE ( 'NONE', #12, #386 ) ;
#428 = CIRCLE ( 'NONE', #70, 1.600000000000002531 ) ;
#429 = ORIENTED_EDGE ( 'NONE', *, *, #248, .F. ) ;
#430 = CARTESIAN_POINT ( 'NONE',  ( 0.000000000000000000, 0.000000000000000000, 7.500000000000000000 ) ) ;
#431 = LINE ( 'NONE', #100, #286 ) ;
#432 = ORIENTED_EDGE ( 'NONE', *, *, #498, .T. ) ;
#433 = DIRECTION ( 'NONE',  ( -1.000000000000000000, 0.000000000000000000, 0.000000000000000000 ) ) ;
#434 = EDGE_CURVE ( 'NONE', #144, #407, #472, .T. ) ;
#435 = CARTESIAN_POINT ( 'NONE',  ( -9.399999999999998579, 2.999999999999998668, 3.499999999999999556 ) ) ;
#436 = ORIENTED_EDGE ( 'NONE', *, *, #402, .F. ) ;
#437 = PRODUCT_CONTEXT ( 'NONE', #167, 'mechanical' ) ;
#438 = DIRECTION ( 'NONE',  ( -8.673617379884035472E-17, -1.000000000000000000, 0.000000000000000000 ) ) ;
#439 = VERTEX_POINT ( 'NONE', #515 ) ;
#440 = AXIS2_PLACEMENT_3D ( 'NONE', #209, #479, #15 ) ;
#441 = SHAPE_DEFINITION_REPRESENTATION ( #42, #17 ) ;
#442 = DIRECTION ( 'NONE',  ( -0.000000000000000000, -0.000000000000000000, -1.000000000000000000 ) ) ;
#443 = EDGE_LOOP ( 'NONE', ( #417, #429, #292, #337 ) ) ;
#444 = DIRECTION ( 'NONE',  ( -1.224646799147353207E-16, 1.000000000000000000, 0.000000000000000000 ) ) ;
#445 = EDGE_LOOP ( 'NONE', ( #269, #298, #90, #521 ) ) ;
#446 = EDGE_CURVE ( 'NONE', #462, #439, #343, .T. ) ;
#447 = DIRECTION ( 'NONE',  ( 8.673617379884035472E-17, 1.000000000000000000, 0.000000000000000000 ) ) ;
#448 = ORIENTED_EDGE ( 'NONE', *, *, #263, .T. ) ;
#449 = VECTOR ( 'NONE', #157, 1000.000000000000000 ) ;
#450 = EDGE_CURVE ( 'NONE', #119, #529, #8, .T. ) ;
#451 = DIRECTION ( 'NONE',  ( 1.000000000000000000, -0.000000000000000000, -0.000000000000000000 ) ) ;
#452 = DIRECTION ( 'NONE',  ( -0.000000000000000000, 0.000000000000000000, 1.000000000000000000 ) ) ;
#453 = DIRECTION ( 'NONE',  ( -1.000000000000000000, -1.224646799147351975E-16, 0.000000000000000000 ) ) ;
#454 = EDGE_CURVE ( 'NONE', #407, #144, #225, .T. ) ;
#455 = ORIENTED_EDGE ( 'NONE', *, *, #243, .F. ) ;
#456 = ORIENTED_EDGE ( 'NONE', *, *, #534, .T. ) ;
#457 = ADVANCED_FACE ( 'NONE', ( #172, #303, #124 ), #518, .F. ) ;
#458 = EDGE_LOOP ( 'NONE', ( #210, #382 ) ) ;
#459 = CARTESIAN_POINT ( 'NONE',  ( 3.000000000000001776, 3.000000000000000444, -7.500000000000000000 ) ) ;
#460 = DIRECTION ( 'NONE',  ( -0.000000000000000000, -0.000000000000000000, -1.000000000000000000 ) ) ;
#461 = CIRCLE ( 'NONE', #232, 1.599999999999999867 ) ;
#462 = VERTEX_POINT ( 'NONE', #135 ) ;
#463 = LINE ( 'NONE', #14, #187 ) ;
#464 = DIRECTION ( 'NONE',  ( 0.000000000000000000, 0.000000000000000000, -1.000000000000000000 ) ) ;
#465 = ORIENTED_EDGE ( 'NONE', *, *, #454, .T. ) ;
#466 = DIRECTION ( 'NONE',  ( -1.334402673828313093E-16, 1.000000000000000000, 0.000000000000000000 ) ) ;
#467 = DIRECTION ( 'NONE',  ( -1.334402673828313093E-16, 1.000000000000000000, -0.000000000000000000 ) ) ;
#468 = ORIENTED_EDGE ( 'NONE', *, *, #369, .T. ) ;
#469 = DIRECTION ( 'NONE',  ( -1.000000000000000000, 0.000000000000000000, 0.000000000000000000 ) ) ;
#470 = CYLINDRICAL_SURFACE ( 'NONE', #306, 1.600000000000000755 ) ;
#471 = ORIENTED_EDGE ( 'NONE', *, *, #199, .T. ) ;
#472 = CIRCLE ( 'NONE', #327, 1.600000000000000755 ) ;
#473 = EDGE_CURVE ( 'NONE', #547, #346, #184, .T. ) ;
#474 = FACE_BOUND ( 'NONE', #353, .T. ) ;
#475 = DIRECTION ( 'NONE',  ( -1.000000000000000000, 8.673617379884035472E-17, 0.000000000000000000 ) ) ;
#476 = ORIENTED_EDGE ( 'NONE', *, *, #454, .F. ) ;
#477 = DIRECTION ( 'NONE',  ( 0.000000000000000000, -1.000000000000000000, 0.000000000000000000 ) ) ;
#478 = ADVANCED_FACE ( 'NONE', ( #395 ), #350, .F. ) ;
#479 = DIRECTION ( 'NONE',  ( 1.000000000000000000, -0.000000000000000000, -0.000000000000000000 ) ) ;
#480 = ORIENTED_EDGE ( 'NONE', *, *, #542, .F. ) ;
#481 = APPLICATION_PROTOCOL_DEFINITION ( 'draft international standard', 'automotive_design', 1998, #167 ) ;
#482 = CARTESIAN_POINT ( 'NONE',  ( 3.000000000000001332, -4.000000000000000000, -3.499999999999999556 ) ) ;
#483 = EDGE_LOOP ( 'NONE', ( #486, #289, #394, #131 ) ) ;
#484 = AXIS2_PLACEMENT_3D ( 'NONE', #482, #73, #485 ) ;
#485 = DIRECTION ( 'NONE',  ( 0.000000000000000000, 0.000000000000000000, -1.000000000000000000 ) ) ;
#486 = ORIENTED_EDGE ( 'NONE', *, *, #80, .T. ) ;
#487 = CARTESIAN_POINT ( 'NONE',  ( 0.000000000000000000, 0.000000000000000000, 0.000000000000000000 ) ) ;
#488 = PLANE ( 'NONE',  #92 ) ;
#489 = ORIENTED_EDGE ( 'NONE', *, *, #369, .F. ) ;
#490 = EDGE_CURVE ( 'NONE', #543, #106, #35, .T. ) ;
#491 = DIRECTION ( 'NONE',  ( 1.000000000000000000, 1.224646799147353207E-16, -0.000000000000000000 ) ) ;
#492 = APPLICATION_PROTOCOL_DEFINITION ( 'draft international standard', 'automotive_design', 1998, #223 ) ;
#493 = VECTOR ( 'NONE', #339, 1000.000000000000000 ) ;
#494 = DIRECTION ( 'NONE',  ( -0.000000000000000000, -0.000000000000000000, -1.000000000000000000 ) ) ;
#495 =( NAMED_UNIT ( * ) SI_UNIT ( $, .STERADIAN. ) SOLID_ANGLE_UNIT ( ) );
#496 = EDGE_CURVE ( 'NONE', #179, #302, #258, .T. ) ;
#497 = CARTESIAN_POINT ( 'NONE',  ( -12.59999999999999964, -12.00000000000000000, -3.499999999999999556 ) ) ;
#498 = EDGE_CURVE ( 'NONE', #193, #505, #57, .T. ) ;
#499 = EDGE_LOOP ( 'NONE', ( #13, #221 ) ) ;
#500 = AXIS2_PLACEMENT_3D ( 'NONE', #224, #345, #389 ) ;
#501 = DIRECTION ( 'NONE',  ( -0.000000000000000000, 0.000000000000000000, -1.000000000000000000 ) ) ;
#502 = AXIS2_PLACEMENT_3D ( 'NONE', #423, #511, #88 ) ;
#503 = CARTESIAN_POINT ( 'NONE',  ( 8.572527594031473190E-16, -7.000000000000000000, -7.500000000000000000 ) ) ;
#504 = CARTESIAN_POINT ( 'NONE',  ( 0.000000000000000000, -4.000000000000000000, -5.100000000000000533 ) ) ;
#505 = VERTEX_POINT ( 'NONE', #168 ) ;
#506 = CARTESIAN_POINT ( 'NONE',  ( 3.000000000000001332, -4.000000000000000000, -1.899999999999999023 ) ) ;
#507 = CYLINDRICAL_SURFACE ( 'NONE', #440, 1.600000000000000755 ) ;
#508 = PRESENTATION_LAYER_ASSIGNMENT (  '', '', ( #120 ) ) ;
#509 = VECTOR ( 'NONE', #338, 1000.000000000000000 ) ;
#510 = ORIENTED_EDGE ( 'NONE', *, *, #277, .T. ) ;
#511 = DIRECTION ( 'NONE',  ( -1.224646799147353207E-16, 1.000000000000000000, 0.000000000000000000 ) ) ;
#512 = FACE_OUTER_BOUND ( 'NONE', #94, .T. ) ;
#513 = ADVANCED_FACE ( 'NONE', ( #308, #474, #388 ), #54, .F. ) ;
#514 = ORIENTED_EDGE ( 'NONE', *, *, #360, .F. ) ;
#515 = CARTESIAN_POINT ( 'NONE',  ( -15.00000000000000000, -1.836970198721029589E-15, -7.500000000000000000 ) ) ;
#516 = PLANE ( 'NONE',  #147 ) ;
#517 = ORIENTED_EDGE ( 'NONE', *, *, #328, .F. ) ;
#518 = PLANE ( 'NONE',  #502 ) ;
#519 = DIRECTION ( 'NONE',  ( -1.000000000000000000, 0.000000000000000000, 0.000000000000000000 ) ) ;
#520 = VECTOR ( 'NONE', #494, 1000.000000000000000 ) ;
#521 = ORIENTED_EDGE ( 'NONE', *, *, #324, .T. ) ;
#522 = VECTOR ( 'NONE', #254, 1000.000000000000000 ) ;
#523 = DIRECTION ( 'NONE',  ( -1.000000000000000000, -1.204669080539449344E-16, 0.000000000000000000 ) ) ;
#524 = DIRECTION ( 'NONE',  ( 1.000000000000000000, 0.000000000000000000, 0.000000000000000000 ) ) ;
#525 = EDGE_LOOP ( 'NONE', ( #455, #64, #123, #362 ) ) ;
#526 = CARTESIAN_POINT ( 'NONE',  ( 3.000000000000000888, -7.000000000000000000, -7.500000000000000000 ) ) ;
#527 = ORIENTED_EDGE ( 'NONE', *, *, #383, .F. ) ;
#528 = FILL_AREA_STYLE ('',( #361 ) ) ;
#529 = VERTEX_POINT ( 'NONE', #506 ) ;
#530 = VECTOR ( 'NONE', #288, 1000.000000000000000 ) ;
#531 = CARTESIAN_POINT ( 'NONE',  ( -11.99999999999999822, -4.000000000000000000, 5.099999999999999645 ) ) ;
#532 = ORIENTED_EDGE ( 'NONE', *, *, #542, .T. ) ;
#533 = CARTESIAN_POINT ( 'NONE',  ( 3.000000000000000888, -7.000000000000000000, 7.500000000000000000 ) ) ;
#534 = EDGE_CURVE ( 'NONE', #333, #242, #537, .T. ) ;
#535 = CARTESIAN_POINT ( 'NONE',  ( -11.00000000000000000, -1.734723475976807094E-15, 3.499999999999999556 ) ) ;
#536 = MECHANICAL_DESIGN_GEOMETRIC_PRESENTATION_REPRESENTATION (  '', ( #120 ), #544 ) ;
#537 = CIRCLE ( 'NONE', #19, 1.599999999999999867 ) ;
#538 = LINE ( 'NONE', #205, #317 ) ;
#539 = CARTESIAN_POINT ( 'NONE',  ( -15.00000000000000000, -1.836970198721029589E-15, 7.500000000000000000 ) ) ;
#540 = PRODUCT_DEFINITION_CONTEXT ( 'detailed design', #223, 'design' ) ;
#541 = LINE ( 'NONE', #81, #6 ) ;
#542 = EDGE_CURVE ( 'NONE', #505, #218, #463, .T. ) ;
#543 = VERTEX_POINT ( 'NONE', #208 ) ;
#544 =( GEOMETRIC_REPRESENTATION_CONTEXT ( 3 ) GLOBAL_UNCERTAINTY_ASSIGNED_CONTEXT ( ( #351 ) ) GLOBAL_UNIT_ASSIGNED_CONTEXT ( ( #370, #416, #495 ) ) REPRESENTATION_CONTEXT ( 'NONE', 'WORKASPACE' ) );
#545 = DIRECTION ( 'NONE',  ( 1.000000000000000000, 0.000000000000000000, -0.000000000000000000 ) ) ;
#546 = AXIS2_PLACEMENT_3D ( 'NONE', #219, #466, #85 ) ;
#547 = VERTEX_POINT ( 'NONE', #347 ) ;
#548 = CYLINDRICAL_SURFACE ( 'NONE', #148, 1.600000000000002531 ) ;
#549 = ORIENTED_EDGE ( 'NONE', *, *, #160, .T. ) ;
ENDSEC;
END-ISO-10303-21;
